<svg xmlns="http://www.w3.org/2000/svg" viewBox="0 0 202.79 283.27"><defs><style>.cls-1{fill:#fff;}</style></defs><g id="Réteg_2" data-name="Réteg 2"><g id="_ŽÓť_1" data-name="—ŽÓť_1"><rect class="cls-1" width="202.79" height="283.27" rx="15.31" transform="translate(202.79 283.27) rotate(180)"/><path d="M14.54,67.08h2.22a11.65,11.65,0,0,1-1-2.23,11.94,11.94,0,0,1-.55-3.95.15.15,0,0,1,.3,0c.33,1.92,1.44,3.28,2.69,3.55A3.41,3.41,0,0,0,21,63.58a4.09,4.09,0,0,0,1.24-3A8,8,0,0,0,21,56.22a86.61,86.61,0,0,0-6.43-8.41A86.37,86.37,0,0,0,8.1,56.22a8.11,8.11,0,0,0-1.28,4.36,4.09,4.09,0,0,0,1.24,3,3.41,3.41,0,0,0,2.78.85c1.25-.27,2.36-1.63,2.7-3.55a.15.15,0,0,1,.29,0,11.85,11.85,0,0,1-1.52,6.18Z"/><path d="M188.26,216.19H186a11.69,11.69,0,0,1,1.53,6.18.15.15,0,0,1-.3,0c-.34-1.92-1.45-3.28-2.7-3.55a3.41,3.41,0,0,0-2.78.85,4.06,4.06,0,0,0-1.23,3,8.06,8.06,0,0,0,1.27,4.36,86.37,86.37,0,0,0,6.44,8.41,88,88,0,0,0,6.44-8.41,8.15,8.15,0,0,0,1.27-4.36,4.08,4.08,0,0,0-1.24-3,3.4,3.4,0,0,0-2.77-.85c-1.26.27-2.37,1.63-2.7,3.55a.15.15,0,0,1-.3,0,11.69,11.69,0,0,1,1.53-6.18Z"/><polygon points="4.31 41.23 4.31 38.06 7.23 38.06 7.23 15.45 4.31 15.45 4.31 12.29 10.46 12.29 10.46 38.06 13.24 38.06 13.24 41.23 4.31 41.23"/><polygon points="198.48 242.04 198.48 245.2 195.57 245.2 195.57 267.82 198.48 267.82 198.48 270.98 192.34 270.98 192.34 245.2 189.55 245.2 189.55 242.04 198.48 242.04"/><path d="M20.68,12.29a6.43,6.43,0,0,0-1.81.28l-.13,0h0a5.81,5.81,0,0,0-.85.36,5.24,5.24,0,0,0-.51.3l-.46.33a4.5,4.5,0,0,0-.43.37A5.94,5.94,0,0,0,15,16.31c-.05.13-.09.26-.12.36a1.15,1.15,0,0,0-.08.31,2.13,2.13,0,0,0-.1.49,2.21,2.21,0,0,0,0,.35,3.44,3.44,0,0,0,0,.56V35.15a4.7,4.7,0,0,0,0,.54,1.65,1.65,0,0,0,.05.32,1.33,1.33,0,0,0,.05.34l0,.1a1.06,1.06,0,0,0,.1.35,3,3,0,0,0,.13.45l.06.13a6,6,0,0,0,1.48,2.18,4.25,4.25,0,0,0,.41.35,5.4,5.4,0,0,0,.46.33,5.24,5.24,0,0,0,.51.3,4,4,0,0,0,.84.35l.11,0h0c.19.06.39.11.58.15a5.4,5.4,0,0,0,1.23.13,6.09,6.09,0,0,0,6.08-6.08V18.38A6.09,6.09,0,0,0,20.68,12.29ZM23.6,35.15a2.92,2.92,0,0,1-5.79.56l0-.2s0,0,0-.09a1.85,1.85,0,0,1,0-.24V18.41c0-.1,0-.21,0-.33l0-.23a2.89,2.89,0,0,1,1.36-1.94l.42-.25a2.88,2.88,0,0,1,1.08-.21,2.85,2.85,0,0,1,2.43,1.32l0,.07.24.45.1.3a3.1,3.1,0,0,1,.1.53,2.64,2.64,0,0,1,0,.29Z"/><path d="M182.11,271a6.43,6.43,0,0,0,1.81-.28l.13,0h0a5.81,5.81,0,0,0,.85-.36,5.24,5.24,0,0,0,.51-.3l.46-.33a4.5,4.5,0,0,0,.43-.37,5.94,5.94,0,0,0,1.52-2.33c0-.13.09-.26.12-.36a1.15,1.15,0,0,0,.08-.31,2.13,2.13,0,0,0,.1-.49,2.21,2.21,0,0,0,0-.35,3.44,3.44,0,0,0,0-.56V248.12a4.7,4.7,0,0,0,0-.54,1.65,1.65,0,0,0-.05-.32,1.33,1.33,0,0,0,0-.34l0-.1a1.06,1.06,0,0,0-.1-.35,3,3,0,0,0-.13-.45l-.06-.13a6,6,0,0,0-1.48-2.18,4.25,4.25,0,0,0-.41-.35,5.4,5.4,0,0,0-.46-.33,5.24,5.24,0,0,0-.51-.3,4,4,0,0,0-.84-.35l-.11,0h0c-.19-.06-.39-.11-.58-.15a5.4,5.4,0,0,0-1.23-.13,6.09,6.09,0,0,0-6.08,6.08v16.77A6.09,6.09,0,0,0,182.11,271Zm-2.92-22.86a2.92,2.92,0,0,1,5.79-.56l0,.2s0,.05,0,.09a1.85,1.85,0,0,1,0,.24v16.77c0,.1,0,.21,0,.33l0,.23a2.89,2.89,0,0,1-1.36,1.94l-.42.25a2.88,2.88,0,0,1-1.08.21,2.85,2.85,0,0,1-2.43-1.32l0-.07-.24-.45-.1-.3a3.1,3.1,0,0,1-.1-.53,2.64,2.64,0,0,1,0-.29Z"/><path d="M60.56,74.16h4.56A23.93,23.93,0,0,1,62,61.51a.31.31,0,0,1,.61,0c.68,3.92,3,6.71,5.52,7.26A7,7,0,0,0,73.82,67a8.36,8.36,0,0,0,2.52-6.14,16.54,16.54,0,0,0-2.6-8.92c-4.92-7.71-10.38-13.67-13.18-17.2-2.8,3.53-8.26,9.49-13.17,17.2a16.54,16.54,0,0,0-2.61,8.92A8.34,8.34,0,0,0,47.31,67,6.93,6.93,0,0,0,53,68.74c2.57-.55,4.84-3.34,5.52-7.26a.31.31,0,0,1,.62,0A24,24,0,0,1,56,74.16Z"/><path d="M60.56,209.11H56a24,24,0,0,1,3.13,12.64.31.31,0,0,1-.62,0c-.68-3.92-2.95-6.71-5.52-7.26a7,7,0,0,0-5.68,1.74,8.36,8.36,0,0,0-2.53,6.15,16.57,16.57,0,0,0,2.61,8.92c4.91,7.71,10.37,13.67,13.17,17.2,2.8-3.53,8.26-9.49,13.18-17.2a16.57,16.57,0,0,0,2.6-8.92,8.38,8.38,0,0,0-2.52-6.15,7,7,0,0,0-5.69-1.74c-2.57.55-4.84,3.34-5.52,7.26a.31.31,0,0,1-.61,0,23.92,23.92,0,0,1,3.12-12.64Z"/><path d="M60.56,151H56a24.24,24.24,0,0,1,2,4.57,24.48,24.48,0,0,1,1.13,8.08.31.31,0,0,1-.62,0c-.68-3.92-2.95-6.71-5.52-7.26a6.93,6.93,0,0,0-5.68,1.75,8.34,8.34,0,0,0-2.53,6.14,16.54,16.54,0,0,0,2.61,8.92c4.91,7.71,10.37,13.67,13.17,17.2,2.8-3.53,8.26-9.49,13.18-17.2a16.54,16.54,0,0,0,2.6-8.92,8.36,8.36,0,0,0-2.52-6.14,7,7,0,0,0-5.69-1.75c-2.57.55-4.84,3.34-5.52,7.26a.31.31,0,0,1-.61,0A24,24,0,0,1,65.12,151Z"/><path d="M60.56,132.29h4.56A24,24,0,0,1,62,119.64a.31.31,0,0,1,.61,0c.68,3.92,3,6.72,5.52,7.26a6.92,6.92,0,0,0,5.69-1.74A8.37,8.37,0,0,0,76.34,119a16.54,16.54,0,0,0-2.6-8.92c-4.92-7.72-10.38-13.67-13.18-17.21-2.8,3.54-8.26,9.49-13.17,17.21A16.54,16.54,0,0,0,44.78,119a8.35,8.35,0,0,0,2.53,6.14A6.89,6.89,0,0,0,53,126.86c2.57-.54,4.84-3.34,5.52-7.26a.31.31,0,0,1,.62,0A24.48,24.48,0,0,1,58,127.72a24.24,24.24,0,0,1-2,4.57Z"/><path d="M142.23,209.11h-4.56a23.77,23.77,0,0,1,2,4.56,24.52,24.52,0,0,1,1.13,8.08.31.31,0,0,1-.61,0c-.69-3.92-3-6.71-5.53-7.26a7,7,0,0,0-5.68,1.74,8.36,8.36,0,0,0-2.53,6.15,16.57,16.57,0,0,0,2.61,8.92c4.91,7.71,10.37,13.67,13.17,17.2,2.81-3.53,8.26-9.49,13.18-17.2a16.49,16.49,0,0,0,2.6-8.92,8.34,8.34,0,0,0-2.52-6.15,7,7,0,0,0-5.69-1.74c-2.57.55-4.84,3.34-5.52,7.26a.31.31,0,0,1-.61,0,23.92,23.92,0,0,1,3.12-12.64Z"/><path d="M142.23,74.16h4.56a23.93,23.93,0,0,1-3.12-12.65.31.31,0,0,1,.61,0c.68,3.92,2.95,6.71,5.52,7.26A7,7,0,0,0,155.49,67,8.32,8.32,0,0,0,158,60.85a16.46,16.46,0,0,0-2.6-8.92c-4.92-7.71-10.37-13.67-13.18-17.2-2.8,3.53-8.26,9.49-13.17,17.2a16.54,16.54,0,0,0-2.61,8.92A8.34,8.34,0,0,0,129,67a6.93,6.93,0,0,0,5.68,1.75c2.57-.55,4.84-3.34,5.53-7.26a.31.31,0,0,1,.61,0,24.57,24.57,0,0,1-1.13,8.09,23.77,23.77,0,0,1-2,4.56Z"/><path d="M101.4,103.22H106a23.77,23.77,0,0,1-2-4.56,24.52,24.52,0,0,1-1.13-8.08.31.31,0,0,1,.61,0c.69,3.92,3,6.71,5.53,7.26a6.92,6.92,0,0,0,5.68-1.74,8.35,8.35,0,0,0,2.53-6.14A16.58,16.58,0,0,0,114.57,81c-4.92-7.71-10.37-13.67-13.17-17.2-2.81,3.53-8.26,9.49-13.18,17.2a16.5,16.5,0,0,0-2.6,8.93,8.29,8.29,0,0,0,2.52,6.14,7,7,0,0,0,5.69,1.74c2.57-.55,4.84-3.34,5.52-7.26a.31.31,0,0,1,.61,0,24.22,24.22,0,0,1-1.12,8.08,23.76,23.76,0,0,1-2,4.56Z"/><path d="M101.4,180.05H96.83a23.22,23.22,0,0,1,2,4.56,24.19,24.19,0,0,1,1.12,8.08.31.31,0,0,1-.61,0c-.68-3.92-2.95-6.72-5.52-7.26a7,7,0,0,0-5.69,1.74,8.29,8.29,0,0,0-2.52,6.14,16.43,16.43,0,0,0,2.6,8.92c4.92,7.72,10.37,13.67,13.18,17.21,2.8-3.54,8.25-9.49,13.17-17.21a16.51,16.51,0,0,0,2.61-8.92,8.35,8.35,0,0,0-2.53-6.14,6.92,6.92,0,0,0-5.68-1.74c-2.57.54-4.84,3.34-5.53,7.26a.31.31,0,0,1-.61,0,24.48,24.48,0,0,1,1.13-8.08,23.23,23.23,0,0,1,2-4.56Z"/><path d="M142.23,132.29h4.56a24,24,0,0,1-3.12-12.65.31.31,0,0,1,.61,0c.68,3.92,2.95,6.72,5.52,7.26a6.92,6.92,0,0,0,5.69-1.74A8.33,8.33,0,0,0,158,119a16.46,16.46,0,0,0-2.6-8.92c-4.92-7.72-10.37-13.67-13.18-17.21-2.8,3.54-8.26,9.49-13.17,17.21a16.54,16.54,0,0,0-2.61,8.92,8.35,8.35,0,0,0,2.53,6.14,6.89,6.89,0,0,0,5.68,1.74c2.57-.54,4.84-3.34,5.53-7.26a.31.31,0,0,1,.61,0,24.48,24.48,0,0,1-1.13,8.08,23.61,23.61,0,0,1-2,4.57Z"/><path d="M142.23,151h-4.56a23.61,23.61,0,0,1,2,4.57,24.48,24.48,0,0,1,1.13,8.08.31.31,0,0,1-.61,0c-.69-3.92-3-6.71-5.53-7.26a6.93,6.93,0,0,0-5.68,1.75,8.34,8.34,0,0,0-2.53,6.14,16.54,16.54,0,0,0,2.61,8.92c4.91,7.71,10.37,13.67,13.17,17.2,2.81-3.53,8.26-9.49,13.18-17.2a16.46,16.46,0,0,0,2.6-8.92,8.32,8.32,0,0,0-2.52-6.14,7,7,0,0,0-5.69-1.75c-2.57.55-4.84,3.34-5.52,7.26a.31.31,0,0,1-.61,0A24,24,0,0,1,146.79,151Z"/></g></g></svg>