<svg xmlns="http://www.w3.org/2000/svg" viewBox="0 0 202.79 283.27"><defs><style>.cls-1{fill:#fff;}.cls-2{fill:#122166;}.cls-3{fill:#e0010a;}.cls-4{fill:#f2c304;}</style></defs><g id="Réteg_2" data-name="Réteg 2"><g id="_ŽÓť_1" data-name="—ŽÓť_1"><rect class="cls-1" width="202.79" height="283.27" rx="15.31" transform="translate(202.79 283.27) rotate(180)"/><path d="M107.14,137.65a116.78,116.78,0,0,0-6-27.31,115.87,115.87,0,0,0-9.57-20.55,4.88,4.88,0,0,1-2,.43,4.83,4.83,0,0,1-1.6-.27,5.57,5.57,0,0,1-1.06.3,6.18,6.18,0,0,1-3.9-.7A4.44,4.44,0,0,1,78,86.41a4.47,4.47,0,0,1-1.11-.92,4.35,4.35,0,0,1-.63-1q-3.14,1.07-6.43,2.36-4.27,1.68-8.08,3.44a59.27,59.27,0,0,1,16.39,11.85C94,118.38,95.46,139,95.66,145.62Z"/><path d="M141.35,140A74.63,74.63,0,0,1,156,95v24.69a2.85,2.85,0,0,0-1.28-1.94,2.54,2.54,0,0,0-2.82,0,2.63,2.63,0,0,0-.82,2.18,3.29,3.29,0,0,0,1,2.16,4.24,4.24,0,0,0,2.22,1.08,8.92,8.92,0,0,0,3.08.17c1.41-.12,1.54-.36,4.3-.87,0,0,.82-.15,2.29-.28s2.18-.09,2.52.28c.19.2.14.31.52,1a9.64,9.64,0,0,0,.65,1,6.41,6.41,0,0,0-1.36-.53,9.13,9.13,0,0,0-3-.18,21.32,21.32,0,0,0-2.87.26,14.21,14.21,0,0,0-4.57,1.59,7,7,0,0,0-1.83,1.35,6.84,6.84,0,0,0-1.33,2.26c-.41,1.07-.41,1.64-.53,6.5a5.84,5.84,0,0,0,.26,2.69,5,5,0,0,0,1.91,2.21v.84H144.28a15.11,15.11,0,0,0-1.65-.95C142.18,140.36,141.75,140.19,141.35,140Z"/><path class="cls-1" d="M48.43,141.73H85.08l.56-.55a3.09,3.09,0,0,1,1.53-5.47V114.19a58.32,58.32,0,0,0-25.4-23.92c-2.33,1.07-4.75,2.25-7.23,3.55-2.14,1.12-4.17,2.24-6.11,3.37Z"/><path class="cls-2" d="M85.94,53.34c3.44-1.21,9.93-1.63,12.34,1.64,2.1,3.65-.67,8.53-1.34,12.21-.15.91-.43,2,.23,2.74a10.78,10.78,0,0,1,3.75,3.32,9.34,9.34,0,0,0-3-2.59c-1.72-.55-1.63-2.06-1.42-3.56,1.29-7.16,4.7-14.06-6.15-12.87a12.37,12.37,0,0,0-3.64,1l-.73-1.84Z"/><path class="cls-2" d="M100.92,73.58a.37.37,0,0,1-.27-.13,9.33,9.33,0,0,0-2.2-2.19,6.72,6.72,0,0,0-1-.61l-.4-.22c-1.36-.93-.68-3.47.1-6.42.84-3.16,1.8-6.75.3-8.63-1.94-2.42-7.57-1.66-8.2-1.56a12.16,12.16,0,0,0-2.78.75.33.33,0,0,1-.43-.19.31.31,0,0,1,.18-.42,12.59,12.59,0,0,1,2.93-.79c1.1-.17,6.69-.85,8.81,1.8,1.71,2.14.71,5.9-.17,9.21-.69,2.59-1.35,5-.37,5.7l.32.18a7,7,0,0,1,1.13.67,10,10,0,0,1,2.36,2.33.33.33,0,0,1-.08.46A.33.33,0,0,1,100.92,73.58Z"/><path class="cls-3" d="M87.17,114.19v21.52a3.48,3.48,0,0,1,2.89,1.21,3.11,3.11,0,0,1,.62,1.91,3.28,3.28,0,0,1-1.15,2.35l.56.55h5.34c-.16-1.9-.43-4.26-.92-6.94a71,71,0,0,0-2.2-8.78A66.67,66.67,0,0,0,87.17,114.19Z"/><path class="cls-3" d="M145.1,83.66,156,89.76v.84a79.05,79.05,0,0,0-12.51,21.74,77.4,77.4,0,0,0-4.93,27,14.46,14.46,0,0,0-7.8,1,14.68,14.68,0,0,0-7.3,7.18,96.89,96.89,0,0,1,6.16-40.82,95.92,95.92,0,0,1,10.86-20.41,4.29,4.29,0,0,0,1.34-.48,4.42,4.42,0,0,0,1.13-.89,4.77,4.77,0,0,0,1.14-.5A5,5,0,0,0,145.1,83.66Z"/><path class="cls-4" d="M91.52,89.79a115.87,115.87,0,0,1,9.57,20.55,116.78,116.78,0,0,1,6,27.31h16.23a95.24,95.24,0,0,1,17.15-51.36,4.73,4.73,0,0,1-2.94,1,6.6,6.6,0,0,1-1.08.78,5.9,5.9,0,0,1-1.24.54,4.82,4.82,0,0,1-1.59,1.12,5,5,0,0,1-2.35.4l-.68.22-16.08,10.33L96.14,88.24l-.63.18a5.75,5.75,0,0,1-1.4.81,6,6,0,0,1-1.49.36h-.7Z"/><rect class="cls-2" x="108.75" y="97" width="0.66" height="7.95"/><rect class="cls-2" x="103.26" y="93.28" width="0.66" height="7.95"/><rect class="cls-2" x="97.78" y="89.59" width="0.66" height="7.93"/><rect class="cls-2" x="119.72" y="97.19" width="0.66" height="7.82"/><rect class="cls-2" x="125.2" y="93.67" width="0.66" height="7.82"/><rect class="cls-2" x="130.69" y="90.29" width="0.66" height="7.67"/><rect class="cls-2" x="114.23" y="100.71" width="0.66" height="7.77"/><path d="M130.64,90.38l-16.08,10.33L96.14,88.24a7.06,7.06,0,0,0,1.68-.82,6.79,6.79,0,0,0,1.31-1.13l15.48,10.48,11.3-7.26a7.25,7.25,0,0,0,1.76.72A7.1,7.1,0,0,0,130.64,90.38Z"/><polygon class="cls-2" points="55.51 121.44 53.68 121.44 52.91 123.19 52.14 121.44 50.31 121.44 52.91 114.53 55.51 121.44"/><polygon class="cls-2" points="83.61 116.76 81.79 116.76 81.02 118.52 80.25 116.76 78.42 116.76 81.02 109.86 83.61 116.76"/><polygon class="cls-2" points="83.91 134.37 82.08 134.37 81.31 136.12 80.54 134.37 78.72 134.37 81.31 127.46 83.91 134.37"/><path d="M44.59,136.4V99.49l3.84-2.3v45.38a7.07,7.07,0,0,0-1.71-.5,6.87,6.87,0,0,0-2.26,0,4.47,4.47,0,0,0,.13-5.7Z"/><path class="cls-1" d="M41.85,135V101.23l2.74-1.74V136.4a4,4,0,0,0-1.53-1.1A4.26,4.26,0,0,0,41.85,135Z"/><path class="cls-3" d="M41.85,101.23V135a4,4,0,0,0-3,6.91v1.4a5.84,5.84,0,0,0-2.08-.09,8.14,8.14,0,0,0-1.76.37c-1,.35-1.81.61-2.19,1.31a2.89,2.89,0,0,0,.22,2.56,2.19,2.19,0,0,0-.7,1.24,2.36,2.36,0,0,0,.53,1.9,1.81,1.81,0,0,0-.78,1.08,2.07,2.07,0,0,0,1.33,2.16,2.15,2.15,0,0,0-.15,1.93A2.06,2.06,0,0,0,35.1,157a1.23,1.23,0,0,0-.41,1,1.19,1.19,0,0,0,.39.77l-.35-.1a2.35,2.35,0,0,0-.95-.3,2.45,2.45,0,0,0-2,.84,2.27,2.27,0,0,0-.45,1.26H29.07v-50c2.35-1.88,4.86-3.79,7.56-5.7Q39.28,102.89,41.85,101.23Z"/><rect x="48.1" y="97.19" width="0.66" height="45.39"/><rect x="44.26" y="99.49" width="0.66" height="36.91"/><rect x="41.52" y="101.23" width="0.66" height="33.79"/><rect class="cls-2" x="92.3" y="89.59" width="0.66" height="2.12"/><polygon class="cls-2" points="114.08 140.51 106.69 135.51 107.06 134.97 114.09 139.73 123.39 133.75 123.75 134.31 114.08 140.51"/><polygon class="cls-2" points="114.14 135.26 105.84 129.64 106.21 129.09 114.15 134.47 123.96 128.17 124.32 128.72 114.14 135.26"/><polygon class="cls-2" points="114.21 130 104.68 123.55 105.05 123.01 114.22 129.22 124.91 122.35 125.27 122.9 114.21 130"/><polygon class="cls-2" points="114.27 124.75 102.98 117.11 103.35 116.56 114.28 123.96 126.3 116.24 126.66 116.8 114.27 124.75"/><polygon class="cls-2" points="114.33 119.5 100.81 110.34 101.18 109.8 114.34 118.71 128.27 109.77 128.62 110.32 114.33 119.5"/><polygon class="cls-2" points="114.4 114.24 97.98 103.13 98.35 102.58 114.41 113.45 130.95 102.83 131.31 103.38 114.4 114.24"/><path class="cls-3" d="M99.13,86.29l15.48,10.48,11.3-7.26a9,9,0,0,1-1.73-1.63,9.28,9.28,0,0,1-1.52-2.69,6.9,6.9,0,0,1-1,3.76c-2,3.11-6,3.28-6.85,3.29a10.32,10.32,0,0,1-3.53-.67,14.91,14.91,0,0,1-4.36-2.44,22.7,22.7,0,0,1-5.87-7,7.19,7.19,0,0,1-.87,2.75A6.76,6.76,0,0,1,99.13,86.29Z"/><polygon points="114.61 97.16 98.95 86.57 99.32 86.02 114.61 96.37 125.74 89.23 126.09 89.78 114.61 97.16"/><polygon points="114.56 101.1 95.95 88.51 96.32 87.97 114.57 100.31 130.46 90.11 130.82 90.66 114.56 101.1"/><polygon class="cls-2" points="114.46 108.98 94.25 95.31 94.62 94.76 114.47 108.2 134.64 95.25 134.99 95.8 114.46 108.98"/><path class="cls-4" d="M138.6,139.34a77.4,77.4,0,0,1,4.93-27A79.05,79.05,0,0,1,156,90.6V95a74.63,74.63,0,0,0-14.69,45Z"/><path d="M138.93,139.34h-.66a78.24,78.24,0,0,1,2-17.37,77,77,0,0,1,2.94-9.75,79.81,79.81,0,0,1,12.56-21.83l.52.41a79.07,79.07,0,0,0-12.46,21.65,77.1,77.1,0,0,0-4.91,26.89Z"/><path d="M141,140a74.83,74.83,0,0,1,14.76-45.19l.53.39A74.22,74.22,0,0,0,141.68,140Z"/><path class="cls-4" d="M164,139.94v1.39a4,4,0,0,0-5.2-.24l-.44.08v-8.11a7,7,0,0,0,1.13-4.24,2.73,2.73,0,0,0,2-.09,2.62,2.62,0,0,0-.17.52,2.34,2.34,0,0,0,.08,1.41,2.3,2.3,0,0,0,.32.54.64.64,0,0,0,.15.13,2.79,2.79,0,0,0-.41,1.56,2.47,2.47,0,0,0,.35,1.05,1.2,1.2,0,0,0,.46.35,2.41,2.41,0,0,0-.22,1.93,2,2,0,0,0,1.32.84,1.65,1.65,0,0,0-.67.84,1.67,1.67,0,0,0,.14,1.28A1.79,1.79,0,0,0,164,139.94Z"/><path class="cls-1" d="M156,119.79v-69l5.6-4.39,5.6,4.39v68a12.88,12.88,0,0,0-1.94,0c-3,.16-4.31,1.13-7.1,1.14A12.75,12.75,0,0,1,156,119.79Z"/><polygon class="cls-2" points="156.37 119.79 155.71 119.79 155.71 50.67 161.64 46.02 167.57 50.67 167.57 118.86 166.91 118.86 166.91 50.99 161.64 46.86 156.37 50.99 156.37 119.79"/><path class="cls-4" d="M71.62,116.53a12.88,12.88,0,0,1,1.63-2.92,13.2,13.2,0,0,1,2.06-2.2,5.67,5.67,0,0,0-2.71-1.16,5.6,5.6,0,0,0-2.57.23,6.11,6.11,0,0,0-3.69-4.11,6.23,6.23,0,0,0-2.47,1.78,6.15,6.15,0,0,0-1.21,2.33,5.66,5.66,0,0,0-5.28.93,13.2,13.2,0,0,1,2.06,2.2,12.88,12.88,0,0,1,1.63,2.92,13,13,0,0,1,10.55,0Z"/><path d="M68.9,128.16l1.64.07,1.65.12a70.71,70.71,0,0,1,8.33,1.16l.1,0v.28a14.28,14.28,0,0,1-28.56,0,2.53,2.53,0,0,1,0-.28h.09a73.06,73.06,0,0,1,8.34-1.17l1.64-.12,1.65-.07Z"/><path class="cls-4" d="M80,133.89l-.37-.08a68.32,68.32,0,0,0-26.63,0l-.38.08.81,2.08a65.49,65.49,0,0,1,25.77,0Z"/><path d="M68.9,128.16H63.79V115.7a18.18,18.18,0,0,1,5.11,0Z"/><path d="M80.13,126.09a73.07,73.07,0,0,0-7.94-1v-8.27A14.22,14.22,0,0,1,80.13,126.09Z"/><path d="M80.58,126.51l-.51-.1a74,74,0,0,0-7.91-1l-.3,0v-9.09l.46.21A14.45,14.45,0,0,1,80.45,126Zm-8.06-1.76c2.4.19,4.8.5,7.15.92a14.07,14.07,0,0,0-7.15-8.38Z"/><path d="M60.5,116.78v8.27a75.63,75.63,0,0,0-7.94,1A14.24,14.24,0,0,1,60.5,116.78Z"/><path d="M52.1,126.51l.14-.51a14.48,14.48,0,0,1,8.12-9.52l.47-.21v9.09l-.31,0a76.19,76.19,0,0,0-7.91,1Zm8.07-9.22A13.86,13.86,0,0,0,53,125.67c2.39-.42,4.8-.73,7.15-.92Z"/><path class="cls-4" d="M72.88,26.23l3.57,6.93,1.77,3.44q3.94,7.66,7.91,15.33a102.8,102.8,0,0,1,47.49.79L141.42,39l1.88-3.31q2.7-4.72,5.38-9.45Z"/><path d="M136.42,47.8l-.84-.24a108.83,108.83,0,0,0-16.92-3c-3.41-.33-6.89-.49-10.36-.5h-.07a112.07,112.07,0,0,0-23.8,2.61l-.89.23-2.49-4.83a6.93,6.93,0,0,0,3.65,2.18c3,.64,6.48-1.13,8.53-4.47a10.27,10.27,0,0,0,16-.33,10.77,10.77,0,0,0,16.29.84c.11.24,2,4.34,6.44,4.95a8.39,8.39,0,0,0,8.3-4.13Z"/><path d="M143.3,35.68,141.42,39a1.3,1.3,0,0,0-.66-.58,1.44,1.44,0,0,0-1,0,.94.94,0,0,0-.23.1,1.35,1.35,0,0,0-.65.7,1.43,1.43,0,0,0,.05,1.2,2.33,2.33,0,1,1-.6-3.94,2.06,2.06,0,0,1,.66.42,2.39,2.39,0,0,1,.18-.78,2.32,2.32,0,0,1,3-1.26A2.21,2.21,0,0,1,143.3,35.68Z"/><path d="M133,45.63a8.72,8.72,0,0,1-1.14-.07,9,9,0,0,1-6.49-4.73,11.41,11.41,0,0,1-8.09,3.1,11.53,11.53,0,0,1-8.11-4,10.93,10.93,0,0,1-7.93,3.78h-.18a11,11,0,0,1-7.81-3.43c-2.13,3.2-5.55,4.9-8.64,4.26a7.28,7.28,0,0,1-3.83-2.29l.49-.45a6.61,6.61,0,0,0,3.48,2.09C87.7,44.53,91,42.79,93,39.6a.33.33,0,0,1,.25-.16.33.33,0,0,1,.28.12,10,10,0,0,0,15.45-.32.33.33,0,0,1,.26-.13h0a.33.33,0,0,1,.26.13,10.91,10.91,0,0,0,7.88,4,10.75,10.75,0,0,0,7.91-3.22.33.33,0,0,1,.3-.09.31.31,0,0,1,.24.19A8.51,8.51,0,0,0,132,44.9a8,8,0,0,0,8-4l.57.33A8.75,8.75,0,0,1,133,45.63Z"/><path d="M133,43.44a4.79,4.79,0,0,1-.85-.06c-2.95-.44-4.87-3.62-5.75-5.48l.6-.28c.82,1.74,2.6,4.71,5.25,5.11.22,0,.47,0,.75.05a8.53,8.53,0,0,0,5.72-2.65l.46.48A9,9,0,0,1,133,43.44Z"/><path d="M117.66,41.74h-.28c-2.54-.1-5.14-1.71-7.51-4.65l.51-.42c2.25,2.79,4.68,4.32,7,4.42h.28c2.21,0,4.63-1.29,7-3.71l.47.46c-2.48,2.55-5,3.9-7.45,3.91Z"/><path d="M110.12,36.87c3.14,3.88,5.84,4.48,7.27,4.53h.3c1.35,0,3.94-.44,7.22-3.81-.1.12-2.32,2.65-5.19,2.06a4.83,4.83,0,0,1-2.35-1.26A4.4,4.4,0,0,1,115,39.52,5.18,5.18,0,0,1,110.12,36.87Z"/><path d="M101.08,41.55c-2.49,0-5-1.42-7.37-4.21l.5-.43c2.27,2.63,4.58,4,6.87,4h.13c2.29,0,4.59-1.47,6.84-4.22l.51.41c-2.37,2.91-4.84,4.41-7.33,4.47Z"/><path d="M94,37.12c2.94,3.42,5.45,4.09,7.12,4.1h.14c1.65,0,4.16-.76,7.08-4.35-1.49,2-3.65,2.89-5.32,2.3A3.37,3.37,0,0,1,101.41,38a3.64,3.64,0,0,1-1.58,1.26C98.06,40,95.71,39.13,94,37.12Z"/><path d="M85.53,42.44l-.41,0c-3-.22-4.81-2.59-5.47-3.59l.55-.36a7,7,0,0,0,5,3.3,5.94,5.94,0,0,0,1.71-.15c2.81-.68,4.41-3.37,5-4.49l.59.29c-.6,1.21-2.32,4.09-5.41,4.84A6.61,6.61,0,0,1,85.53,42.44Z"/><path d="M79.92,38.65c.38.58,2.2,3.21,5.23,3.44a5.86,5.86,0,0,0,1.8-.15c3.14-.76,4.78-3.83,5.19-4.66a4.69,4.69,0,0,1-3.4,2.63,4,4,0,0,1-2.28-.46,3.77,3.77,0,0,1-1.92,1.23A4.57,4.57,0,0,1,79.92,38.65Z"/><path class="cls-3" d="M85.13,49.87a109.15,109.15,0,0,1,23.17-2.53c4.53,0,8.17.31,10,.49a103.55,103.55,0,0,1,16.4,2.92l1.68-3-.84-.24a108.83,108.83,0,0,0-16.92-3c-3.41-.33-6.89-.49-10.36-.5h-.07a112.07,112.07,0,0,0-23.8,2.61l-.89.23Z"/><path d="M136.33,48.11l-.84-.23a108.06,108.06,0,0,0-16.86-3c-3.4-.33-6.87-.49-10.33-.5A112.2,112.2,0,0,0,84.5,47l-.88.23-.17-.64.9-.23a112.31,112.31,0,0,1,23.88-2.62c3.55,0,7,.18,10.46.51a107,107,0,0,1,17,3l.85.23Z"/><path class="cls-2" d="M134.74,50.75a103.55,103.55,0,0,0-16.4-2.92c-1.87-.18-5.51-.48-10-.49a109.15,109.15,0,0,0-23.17,2.53l1,2.06a102.83,102.83,0,0,1,47.5.79Z"/><path class="cls-1" d="M40.44,116.11a2.09,2.09,0,0,1-4,.76l0,0-.2-.49a.15.15,0,0,0-.29,0,6.57,6.57,0,0,0,.32,2,6.49,6.49,0,0,0,.65,1.39H34.45a6.49,6.49,0,0,0,.65-1.39,6.57,6.57,0,0,0,.32-2,.15.15,0,0,0-.29,0l-.2.49,0,0a2.08,2.08,0,1,1-1.16-2.7l.34.18.19.1a.09.09,0,0,0,.11-.15l-.34-.37-.09-.11,0,0,0-.07,0-.06-.05-.07,0,0,0-.08a2.92,2.92,0,0,1-.14-.31l-.06-.19v0a.24.24,0,0,1,0-.08s0-.06,0-.08a.07.07,0,0,0,0,0v-.07c0-.05,0-.09,0-.14v-.11a2.22,2.22,0,0,1,4.44,0,.41.41,0,0,1,0,.11.66.66,0,0,1,0,.14v.07a.07.07,0,0,0,0,0s0,0,0,.08a.24.24,0,0,1,0,.08v0l-.06.19a2.92,2.92,0,0,1-.14.31l0,.08,0,0-.05.07,0,.06,0,.07,0,0-.09.11-.34.37a.09.09,0,0,0,.11.15l.19-.1.34-.18a2.09,2.09,0,0,1,2.87,1.94Z"/><path class="cls-1" d="M40.44,130.91a2.09,2.09,0,0,1-4,.76l0,0-.2-.48a.15.15,0,0,0-.29,0,6.57,6.57,0,0,0,.32,2,6.73,6.73,0,0,0,.65,1.39H34.45a6.73,6.73,0,0,0,.65-1.39,6.57,6.57,0,0,0,.32-2,.15.15,0,0,0-.29,0l-.2.48,0,0A2.08,2.08,0,1,1,33.75,129l.34.18.19.1a.1.1,0,0,0,.11-.15l-.34-.38-.09-.1,0,0,0-.07,0-.06-.05-.07,0-.06,0-.07a3.09,3.09,0,0,1-.14-.32l-.06-.18v0a.31.31,0,0,1,0-.08s0-.06,0-.09a.11.11,0,0,0,0,0v-.06s0-.1,0-.14v-.12a2.22,2.22,0,0,1,4.44,0,.49.49,0,0,1,0,.12.66.66,0,0,1,0,.14v.06a.11.11,0,0,0,0,0s0,.06,0,.09a.31.31,0,0,1,0,.08v0l-.06.18a3.09,3.09,0,0,1-.14.32l0,.07,0,.06-.05.07,0,.06,0,.07,0,0-.09.1-.34.38a.1.1,0,0,0,.11.15l.19-.1.34-.18a2.09,2.09,0,0,1,2.87,1.93Z"/><path class="cls-1" d="M148.21,96.21a2.11,2.11,0,0,1-4.05-.87v-.58a.14.14,0,0,0-.28-.06,6.39,6.39,0,0,0-.41,3.48l-2.26-1a6.18,6.18,0,0,0,1.16-1,6.42,6.42,0,0,0,1-1.68.15.15,0,0,0-.24-.17l-.38.38,0,0a2.11,2.11,0,0,1-3.45-2.29,2.11,2.11,0,0,1,2.76-1.12,2.08,2.08,0,0,1,.67.45l.25.3.13.16a.1.1,0,0,0,.17-.09l-.17-.48-.05-.14a.08.08,0,0,0,0,0s0,0,0-.08,0,0,0-.07,0-.06,0-.08a.2.2,0,0,1,0-.07.28.28,0,0,1,0-.09,1.36,1.36,0,0,1,0-.35,1.23,1.23,0,0,1,0-.19v0s0-.06,0-.08,0-.06,0-.09l0-.05a.14.14,0,0,1,0-.06.74.74,0,0,1,0-.14l0-.1a2.24,2.24,0,0,1,4.13,1.73l-.05.11a.75.75,0,0,1-.07.12l0,.06,0,0s0,0,0,.08l-.05.06,0,0-.13.15-.25.24-.07,0-.06,0-.07,0-.06,0-.08,0h0l-.13.07-.46.21a.09.09,0,0,0,0,.18h.2l.4,0a2.15,2.15,0,0,1,.78.17A2.1,2.1,0,0,1,148.21,96.21Z"/><path class="cls-1" d="M136.82,130.59a2.1,2.1,0,0,1-4.12.36l0,0-.15-.51a.15.15,0,0,0-.3,0,6.72,6.72,0,0,0,.12,2,7.09,7.09,0,0,0,.52,1.47l-2.44-.25a6.13,6.13,0,0,0,.8-1.33,6.63,6.63,0,0,0,.51-1.92.15.15,0,0,0-.28-.09l-.25.47,0,0a2.1,2.1,0,0,1-4-1.17,2.09,2.09,0,0,1,2.3-1.88,2.16,2.16,0,0,1,.77.23l.33.21.17.12a.1.1,0,0,0,.13-.14l-.3-.41-.09-.12s0,0,0,0a.43.43,0,0,1,0-.07l0-.06,0-.08,0-.06,0-.08a1.42,1.42,0,0,1-.11-.33,1.29,1.29,0,0,1,0-.19.06.06,0,0,1,0,0s0,0,0-.08a.25.25,0,0,0,0-.08v-.26s0-.08,0-.12a2.24,2.24,0,0,1,4.45.45.41.41,0,0,1,0,.11l0,.14a.2.2,0,0,1,0,.07.43.43,0,0,0,0,0l0,.08a.31.31,0,0,1,0,.08v0l-.08.18c0,.1-.11.2-.17.3l-.05.07s0,0-.05,0a.18.18,0,0,1,0,.07l-.05.06L134,128l0,0-.11.1-.38.34a.1.1,0,0,0,.1.16l.19-.07.37-.15a2.12,2.12,0,0,1,2.69,2.23Z"/><path d="M174.38,257.7h-146V25.57h146ZM29.73,256.38H173.06V26.89H29.73Z"/><path class="cls-2" d="M114.56,87.88c-2.25,0-5.35-2.19-7.48-4.61q-.37-.43-.72-.9l.52-.39c.22.29.46.58.69.85,2.23,2.53,5.67,4.84,7.58,4.32a2.65,2.65,0,0,0,.78-.35l.34.57a3.74,3.74,0,0,1-1,.42A3.1,3.1,0,0,1,114.56,87.88Z"/><path class="cls-2" d="M114.59,90.28c-3.54,0-7.41-3.27-9.31-5.43a17,17,0,0,1-1.87-2.59l.57-.33a16.29,16.29,0,0,0,1.79,2.48c2,2.33,6.46,6,10,5.06a6.41,6.41,0,0,0,2.92-1.9,5,5,0,0,0,.33-.47l.56.34a5.14,5.14,0,0,1-.37.54A7.15,7.15,0,0,1,116,90.1,5.24,5.24,0,0,1,114.59,90.28Z"/><path class="cls-2" d="M114.89,92.57c-5.71,0-10.45-5-11.42-6.14a19.48,19.48,0,0,1-2.3-3.25,7.55,7.55,0,0,1-1.45,3,7.63,7.63,0,0,1-4.13,2.6l-.16-.64a6.89,6.89,0,0,0,3.77-2.38,6.81,6.81,0,0,0,1.48-3.58l.13-1.12.5,1A18.56,18.56,0,0,0,104,86c1,1.16,6.39,6.87,12.46,5.79a7.09,7.09,0,0,0,4.43-2.34,6.74,6.74,0,0,0,1.47-4.26H123a7.46,7.46,0,0,1-1.62,4.67,7.71,7.71,0,0,1-4.82,2.56A9.49,9.49,0,0,1,114.89,92.57Z"/><path class="cls-2" d="M88.65,79.2c-1.61-2.93-1.84-8-2.15-15.15-.16-3.53-.33-7.53-.7-12.09l.65-.05c.38,4.56.55,8.57.71,12.11.31,7,.53,12.07,2.07,14.86Z"/><path class="cls-2" d="M129.53,90.83a7.73,7.73,0,0,1-3-.64c-4.07-1.8-5.18-7.31-6.16-12.17a54.26,54.26,0,0,1-1-10.1c-.07-1.75-.14-3.74-.31-6.21-.26-3.85-.69-7.77-1.28-11.65l.65-.1c.59,3.9,1,7.83,1.29,11.71.17,2.48.24,4.47.3,6.23a54.63,54.63,0,0,0,1,10c1,4.71,2,10,5.79,11.7.3.14,3,1.3,5-.08,1.73-1.22,1.75-3.72,1.72-4.45a4.77,4.77,0,0,0-1-2.94,4.1,4.1,0,0,0-3.1-1.61h0a3.75,3.75,0,0,0-3.66,2.63,3.51,3.51,0,0,0,1.69,3.79,2.32,2.32,0,0,0,2.16.18,2.13,2.13,0,0,0,1.12-2,2.41,2.41,0,0,0-.77-1.6,1,1,0,0,0-.75-.29c-.46,0-.8.53-.93.73l-.56-.33a2.06,2.06,0,0,1,1.43-1.06,1.71,1.71,0,0,1,1.24.45,3.05,3.05,0,0,1,1,2.07,2.76,2.76,0,0,1-1.49,2.59,3,3,0,0,1-2.75-.18,4.14,4.14,0,0,1-2-4.53,4.35,4.35,0,0,1,4.3-3.14h0A4.87,4.87,0,0,1,133,81.7,5.54,5.54,0,0,1,134.18,85c0,.83,0,3.62-2,5A4.49,4.49,0,0,1,129.53,90.83Z"/><path class="cls-2" d="M131.56,90.49h-.26l0-.66a4.81,4.81,0,0,0,3.47-1.18c1.95-1.84,1.15-4.85,1-5.44a4.84,4.84,0,0,0-2.61-3.29,4.92,4.92,0,0,0-4.3.6l-.38-.54a4.94,4.94,0,0,1,7.91,3c.21.65,1.1,4-1.13,6.11A5.41,5.41,0,0,1,131.56,90.49Z"/><path class="cls-2" d="M135.36,89l-.2-.63a5.27,5.27,0,0,0,3.16-2.56,5.44,5.44,0,0,0-.1-4.43,4.33,4.33,0,0,0-2.62-2.5,4.55,4.55,0,0,0-3.59.75l-.35-.55a5.18,5.18,0,0,1,4.12-.83,5,5,0,0,1,3,2.86,6,6,0,0,1,.09,5A5.94,5.94,0,0,1,135.36,89Z"/><path class="cls-2" d="M137.58,87.65V87a4,4,0,0,0,2.77-1.07c.93-1,1.15-2.4.66-4.26-.35-1.32-1.62-3.86-3.89-4a4,4,0,0,0-2.63,1l-.42-.5A4.5,4.5,0,0,1,137.15,77c2.66.13,4.1,3,4.5,4.46.69,2.62-.07,4.1-.83,4.89A4.62,4.62,0,0,1,137.58,87.65Z"/><path class="cls-2" d="M140.59,86.62l-.13-.65a4.12,4.12,0,0,0,2.37-1.37c1.43-1.75.67-4.22,0-5.4A4.32,4.32,0,0,0,140,76.85a4.08,4.08,0,0,0-3.07.78l-.39-.53a4.69,4.69,0,0,1,3.58-.89,4.9,4.9,0,0,1,3.31,2.66c.76,1.33,1.59,4.12-.05,6.14A4.82,4.82,0,0,1,140.59,86.62Z"/><path class="cls-2" d="M143.08,85.24l-.18-.63a4.51,4.51,0,0,0,2.48-1.84A4.78,4.78,0,0,0,143,76a4.26,4.26,0,0,0-3.47.73l-.4-.53a5,5,0,0,1,4.05-.83,5.16,5.16,0,0,1-.07,9.87Z"/><path class="cls-2" d="M131.36,79.43l-.12-.3a30.72,30.72,0,0,1-1.2-3.9,34.08,34.08,0,0,1-.76-8.61v-1a82.63,82.63,0,0,0-1.1-13.37l-.11-.65.65-.11.11.66A85,85,0,0,1,130,65.61v1a33.56,33.56,0,0,0,.74,8.45,28.84,28.84,0,0,0,1.17,3.81l.12.29Z"/><path class="cls-2" d="M136,77.54a32.34,32.34,0,0,1-1.13-3.71,33.92,33.92,0,0,1-.76-8.53V64.2a79.86,79.86,0,0,0-.81-11.43l.66-.09a82.59,82.59,0,0,1,.81,11.52v1.1a33,33,0,0,0,.74,8.38,29.67,29.67,0,0,0,1.1,3.62Z"/><path class="cls-2" d="M129,80a32.77,32.77,0,0,1-1.28-4.2,36.46,36.46,0,0,1-.83-9.17v-1a81,81,0,0,0-1.25-14.07l-.09-.41.64-.14.1.43a82.43,82.43,0,0,1,1.26,14.19v1a36,36,0,0,0,.81,9,31.42,31.42,0,0,0,1.26,4.11Z"/><path class="cls-2" d="M126.75,80.83a36.43,36.43,0,0,1-1.38-4.51,38.63,38.63,0,0,1-.88-9.73v-1a80.05,80.05,0,0,0-1.43-14.88l.64-.12a79.68,79.68,0,0,1,1.45,15v1a37.26,37.26,0,0,0,.87,9.57,34,34,0,0,0,1.35,4.43Z"/><path class="cls-2" d="M133.6,78.58a25.42,25.42,0,0,1-1.22-3.89,31.39,31.39,0,0,1-.7-8v-1a84.2,84.2,0,0,0-.92-12.4l-.17-1.09.65-.1.18,1.09a85.57,85.57,0,0,1,.92,12.51v1a30.46,30.46,0,0,0,.68,7.88,27.38,27.38,0,0,0,1.19,3.8Z"/><path class="cls-2" d="M125.13,83.19A36.67,36.67,0,0,1,123,76.86a40.57,40.57,0,0,1-1-10.3v-1a78.62,78.62,0,0,0-1.55-15.22l.64-.13a78.42,78.42,0,0,1,1.57,15.35v1a40,40,0,0,0,.93,10.14,35.68,35.68,0,0,0,2,6.22Z"/><path class="cls-2" d="M117.9,88.15a3,3,0,0,1-2.45-4.66,3.91,3.91,0,0,1,7.16.65l-.61.24a3.42,3.42,0,0,0-3.92-2.18,3.37,3.37,0,0,0-2,1.61,2.5,2.5,0,0,0-.31,1.94,2.47,2.47,0,0,0,2.35,1.74,1.87,1.87,0,0,0,1.32-.84,1.45,1.45,0,0,0-.11-1.74,1.37,1.37,0,0,0-1.76,0l-.41-.51a2,2,0,0,1,2.62,0A2.1,2.1,0,0,1,120,87a2.48,2.48,0,0,1-1.83,1.17Z"/><path class="cls-2" d="M115,85.69a6.88,6.88,0,0,1-2.26-.61A7.66,7.66,0,0,1,111,84a21.81,21.81,0,0,1-2.37-2.16l.48-.45a21.68,21.68,0,0,0,2.3,2.1,7.74,7.74,0,0,0,1.56,1,6,6,0,0,0,2,.55Z"/><path class="cls-2" d="M115.94,83.61a8.23,8.23,0,0,1-5.26-3l.51-.41a7.89,7.89,0,0,0,3.12,2.3A7.78,7.78,0,0,0,116,83Z"/><path class="cls-2" d="M117.7,82.27A9.63,9.63,0,0,1,114,80.43a9.1,9.1,0,0,1-1.3-1.26l.5-.43a9.62,9.62,0,0,0,1.21,1.18,9,9,0,0,0,3.47,1.71Z"/><path class="cls-2" d="M121.61,82.65a14.73,14.73,0,0,1-3.55-1.83,13.92,13.92,0,0,1-2.34-2.06,11.87,11.87,0,0,1-1-1.31l.54-.38a12,12,0,0,0,1,1.25,12.93,12.93,0,0,0,2.23,2A13.42,13.42,0,0,0,121.83,82Z"/><path class="cls-2" d="M92.05,89.92h-.14v-.66a5.33,5.33,0,0,0,2.46-.51c3.2-1.55,3.41-5.89,3.42-6.08l.66,0c0,.2-.24,4.93-3.8,6.64A5.84,5.84,0,0,1,92.05,89.92Z"/><path class="cls-2" d="M86,90.62a7.28,7.28,0,0,1-3.17-.77l.29-.59a6.29,6.29,0,0,0,3.61.65c3.18-.44,5.89-3.81,6.58-8.18l.65.1c-.74,4.73-3.61,8.24-7.14,8.74A7.52,7.52,0,0,1,86,90.62Z"/><path class="cls-2" d="M82.32,89.92a4.73,4.73,0,0,1-2.63-.75,5.15,5.15,0,0,1-2-2.65l.62-.21a4.47,4.47,0,0,0,1.72,2.31,5.32,5.32,0,0,0,4.43.28c4.82-1.38,6.36-8.48,6.42-8.78l.64.14c-.16.79-1.77,7.8-6.88,9.27A8.37,8.37,0,0,1,82.32,89.92Z"/><path class="cls-2" d="M81.08,87.69a5.4,5.4,0,0,1-1.18-.13c-.14,0-3.47-.8-4.12-3.56a5,5,0,0,1,1-4,4.36,4.36,0,0,1,3.16-1.85,3.89,3.89,0,0,1,3.93,2.64,3.23,3.23,0,0,1-1.37,3.53,3.19,3.19,0,0,1-2.54.18,2.31,2.31,0,0,1-1.43-1.23A2,2,0,0,1,79,81a1.72,1.72,0,0,1,2.25,0,1.32,1.32,0,0,1,.33,1h-.65a.82.82,0,0,0-.16-.52,1.1,1.1,0,0,0-1.35.08,1.33,1.33,0,0,0-.3,1.44,1.63,1.63,0,0,0,1,.85,2.51,2.51,0,0,0,2-.12,2.56,2.56,0,0,0,1-2.8,3.19,3.19,0,0,0-3.26-2.14,3.68,3.68,0,0,0-2.66,1.59,4.32,4.32,0,0,0-.86,3.49c.55,2.36,3.5,3,3.62,3.07,2.94.64,5.41-1.67,6.34-2.69A9,9,0,0,0,88.61,79l.66.06a9.82,9.82,0,0,1-2.4,5.6C86,85.64,83.81,87.69,81.08,87.69Z"/><path class="cls-2" d="M82.77,84.08l-.34-.56a11.64,11.64,0,0,0,5.21-7.22l.64.16a12.56,12.56,0,0,1-3.15,5.73A12,12,0,0,1,82.77,84.08Z"/><path class="cls-2" d="M85.36,81.09a3.09,3.09,0,0,0-1.12-2.22,3.13,3.13,0,0,0-3.42-.2l-.32-.57a3.62,3.62,0,0,1,5.51,3Z"/><path class="cls-2" d="M121,80.09a13.85,13.85,0,0,1-2.8-2.18,14.87,14.87,0,0,1-1.4-1.65l.54-.38a13.16,13.16,0,0,0,4,3.64Z"/><path class="cls-2" d="M86.69,79.07a2.34,2.34,0,0,0-1.93-1.68,2.47,2.47,0,0,0-2,.77l-.48-.45a3.1,3.1,0,0,1,2.54-1,3,3,0,0,1,2.48,2.13Z"/><path class="cls-2" d="M85.22,77.3l-.5-.42a2.7,2.7,0,0,1,2.22-1,2.3,2.3,0,0,1,1.15.46l-.4.53a1.69,1.69,0,0,0-.82-.34A2.06,2.06,0,0,0,85.22,77.3Z"/><path class="cls-2" d="M133.78,53.11l-.24-.07a102,102,0,0,0-15.44-2.7,103.29,103.29,0,0,0-31.9,1.92l-.25.05L72.59,26.38l.58-.3L86.3,51.56a103,103,0,0,1,47.16.78l7.68-13.51L143,35.52l5.37-9.45.58.32-5.38,9.45-1.88,3.31Z"/><path class="cls-2" d="M133.54,53a102.46,102.46,0,0,0-47.35-.78l-.14-.65a103.06,103.06,0,0,1,47.65.79Z"/><path class="cls-2" d="M134.66,51.07a103.89,103.89,0,0,0-16.35-2.91c-3.29-.32-6.66-.48-10-.49h-.07a108.15,108.15,0,0,0-23,2.53l-.14-.65A109.44,109.44,0,0,1,108.23,47h.07c3.37,0,6.76.16,10.07.48a105.29,105.29,0,0,1,16.46,2.93Z"/><path d="M112.19,33.46a2.25,2.25,0,0,0-.78.14,2.29,2.29,0,0,0,.14-.78,2.34,2.34,0,1,0-4.67,0,2.29,2.29,0,0,0,.14.78,2.25,2.25,0,0,0-.78-.14,2.34,2.34,0,1,0,2.06,3.41,1.42,1.42,0,1,1,2.33-1.08,1.41,1.41,0,0,1-.51,1.08,2.33,2.33,0,1,0,2.07-3.41Z"/><path d="M129.1,34.56a2.59,2.59,0,0,0-.79.06,2.09,2.09,0,0,0,.21-.76,2.34,2.34,0,0,0-4.65-.44,2.29,2.29,0,0,0,.07.79,2.45,2.45,0,0,0-.76-.21,2.34,2.34,0,1,0,1.73,3.6,1.44,1.44,0,0,1-.4-1.13,1.41,1.41,0,0,1,.42-.87.74.74,0,0,1,.19-.16,1.4,1.4,0,0,1,.93-.24,1.38,1.38,0,0,1,.87.42.93.93,0,0,1,.16.18,1.36,1.36,0,0,1,.24.93,1.38,1.38,0,0,1-.6,1,2.33,2.33,0,1,0,2.38-3.2Z"/><path d="M95.74,33.55a2.5,2.5,0,0,0-.77.2,2.25,2.25,0,0,0,.08-.78,2.33,2.33,0,1,0-4.65.38,2.19,2.19,0,0,0,.2.76,2.33,2.33,0,1,0,1.54,3.17,1.43,1.43,0,0,1-.58-1.05,1.4,1.4,0,0,1,.25-.92,1.6,1.6,0,0,1,.16-.19,1.4,1.4,0,0,1,.88-.41,1.49,1.49,0,0,1,.93.26l.19.15a1.47,1.47,0,0,1,.4.88A1.41,1.41,0,0,1,94,37.12a2.33,2.33,0,1,0,1.78-3.57Z"/><path d="M82.28,39.18a2.35,2.35,0,0,1-2.36-.53,1.42,1.42,0,0,0,.14-1.19,1.43,1.43,0,0,0-.6-.76l-.22-.1a1.46,1.46,0,0,0-1,0s0,0,0,0l-1.77-3.44a2.6,2.6,0,0,1,.58-.28,2.33,2.33,0,0,1,3,1.47,2.12,2.12,0,0,1,.12.78,2.36,2.36,0,0,1,.7-.38,2.34,2.34,0,0,1,1.48,4.43Z"/><path d="M126.72,37.76a4.52,4.52,0,0,0,3.9,3.07,3.54,3.54,0,0,0,1.87-.56,3.48,3.48,0,0,0,1.36,1.28c1.47.75,3.51.28,5.12-1.18a8,8,0,0,1-4.28,2.53,6.05,6.05,0,0,1-2.88,0,6.94,6.94,0,0,1-3.59-2.59A9.53,9.53,0,0,1,126.72,37.76Z"/><path class="cls-2" d="M29.28,110.74l-.42-.52A156.82,156.82,0,0,1,76.17,84.16l.21.62a156,156,0,0,0-47.1,26Z"/><path class="cls-4" d="M80.49,127.83a74.57,74.57,0,0,0-8.3-1.13c-.55,0-1.1-.08-1.65-.11V116.15a13,13,0,0,1,1.65.62v8.28a73.07,73.07,0,0,1,7.94,1h0A14.48,14.48,0,0,1,80.49,127.83Z"/><path d="M80.88,128.24l-.46-.08A74.18,74.18,0,0,0,72.16,127c-.54,0-1.09-.08-1.63-.11h-.31v-11.2l.42.13a14.48,14.48,0,0,1,1.69.63l.19.09v8.19a75.53,75.53,0,0,1,7.67,1h.25V126a12.6,12.6,0,0,1,.36,1.79Zm-10-2q.67,0,1.35.09a75,75,0,0,1,7.87,1c-.06-.36-.13-.71-.22-1a75.9,75.9,0,0,0-7.71-1l-.3,0V117c-.33-.14-.66-.27-1-.38Z"/><path class="cls-4" d="M80.62,129.53l-.1,0a70.71,70.71,0,0,0-8.33-1.16l-1.65-.12-1.64-.07V115.75a12.66,12.66,0,0,1,1.64.4v10.44c.55,0,1.1.06,1.65.11a74.57,74.57,0,0,1,8.3,1.13A16,16,0,0,1,80.62,129.53Z"/><path d="M81,129.94l-.5-.11a71.86,71.86,0,0,0-8.29-1.15c-.54-.05-1.09-.09-1.64-.12l-1.59-.07-.31,0-.05-.31v-12.8l.39.07a12.5,12.5,0,0,1,1.68.41l.23.07v10.37q.67,0,1.35.09a73.44,73.44,0,0,1,8.33,1.14l.23,0,0,.24a13.56,13.56,0,0,1,.14,1.74Zm-11.72-2.1,1.33.06,1.66.12a73.29,73.29,0,0,1,8.06,1.11c0-.33,0-.67-.09-1a72.68,72.68,0,0,0-8-1.08c-.54,0-1.09-.08-1.63-.11h-.31V116.39q-.48-.14-1-.24Z"/><path class="cls-4" d="M63.79,115.75v12.41l-1.65.07-1.64.12a73.06,73.06,0,0,0-8.34,1.17h-.09a12,12,0,0,1,.13-1.7,74.57,74.57,0,0,1,8.3-1.13l1.64-.11V116.15A12.81,12.81,0,0,1,63.79,115.75Z"/><path d="M51.73,129.92v-.39a13.48,13.48,0,0,1,.13-1.74l0-.24.23,0a73.75,73.75,0,0,1,8.33-1.14l1.34-.09V115.91l.23-.07a11.61,11.61,0,0,1,1.69-.41l.39-.07v13.11H63.8l-1.64.08-1.64.12a71.88,71.88,0,0,0-8.29,1.16Zm.77-1.81a9.18,9.18,0,0,0-.09,1A74.39,74.39,0,0,1,60.47,128l1.65-.12,1.34-.06V116.15q-.51.1-1,.24v10.52h-.31l-1.64.11A72.82,72.82,0,0,0,52.5,128.11Z"/><path class="cls-4" d="M62.14,116.15v10.44l-1.64.11a74.57,74.57,0,0,0-8.3,1.13,14.48,14.48,0,0,1,.35-1.74h0a75.63,75.63,0,0,1,7.94-1v-8.28A13.48,13.48,0,0,1,62.14,116.15Z"/><path d="M51.81,128.24l.06-.45a16.19,16.19,0,0,1,.36-1.79l.07-.24h.25a73.63,73.63,0,0,1,7.62-1v-8.19l.19-.09a13.84,13.84,0,0,1,1.69-.63l.42-.13v11.2h-.31l-1.64.11a74.83,74.83,0,0,0-8.26,1.13Zm1-1.87c-.09.34-.16.69-.22,1a75,75,0,0,1,7.87-1l1.34-.09V116.6c-.33.11-.66.24-1,.38v8.38l-.31,0A76.89,76.89,0,0,0,52.82,126.37Z"/><path d="M71.92,116.65l-.61-.24a13.58,13.58,0,0,1,1.68-3,13.91,13.91,0,0,1,1.79-2,5.25,5.25,0,0,0-2.23-.87,5.47,5.47,0,0,0-2.41.22l-.33.11-.1-.33a5.76,5.76,0,0,0-1.14-2.21,5.83,5.83,0,0,0-2.23-1.63,5.89,5.89,0,0,0-2.22,1.63A5.76,5.76,0,0,0,63,110.57l-.1.33-.33-.11a5.33,5.33,0,0,0-2.41-.22,5.25,5.25,0,0,0-2.23.87,13.91,13.91,0,0,1,1.79,2,13.58,13.58,0,0,1,1.68,3l-.61.24a13.1,13.1,0,0,0-1.6-2.85,12.6,12.6,0,0,0-2-2.13l-.31-.26.32-.25a5.91,5.91,0,0,1,5.26-1.09,6.44,6.44,0,0,1,3.78-4l.12,0,.12,0a6.42,6.42,0,0,1,3.79,4,5.91,5.91,0,0,1,5.26,1.09l.32.25-.31.26a12.6,12.6,0,0,0-2,2.13A13.1,13.1,0,0,0,71.92,116.65Z"/><path d="M70.09,115.91a14.68,14.68,0,0,1,1.84-3.28c.19-.25.38-.49.58-.73l-.14,0a3.56,3.56,0,0,0-.55,0,4.11,4.11,0,0,0-1.27.2l-1.65.55-.46-1.68a4.65,4.65,0,0,0-.88-1.71,4.73,4.73,0,0,0-1.22-1,4.7,4.7,0,0,0-1.21,1,4.5,4.5,0,0,0-.88,1.71l-.46,1.68L62.14,112a4.16,4.16,0,0,0-1.27-.2,3.56,3.56,0,0,0-.55,0l-.14,0c.2.24.39.48.58.73a14.9,14.9,0,0,1,1.84,3.28,23.46,23.46,0,0,1,7.49,0Z"/><path d="M79.17,136.29a65.9,65.9,0,0,0-25.65,0l-.13-.65a66.84,66.84,0,0,1,25.91,0Z"/><path d="M52.72,134.21l-.13-.64.37-.08a68.91,68.91,0,0,1,26.77,0l.37.08-.13.64-.37-.07a68,68,0,0,0-26.51,0Z"/><polygon points="80.63 129.86 80.62 129.86 80.62 129.2 80.63 129.86"/><polygon points="52.07 129.86 52.06 129.86 52.06 129.2 52.07 129.86"/><polygon points="80.49 128.16 80.49 128.16 80.49 127.5 80.49 128.16"/><polygon points="63.46 128.16 63.46 128.16 64.12 128.16 63.46 128.16"/><polygon points="61.81 128.24 61.81 128.23 62.47 128.23 61.81 128.24"/><polygon points="68.57 128.16 68.57 128.16 69.23 128.16 68.57 128.16"/><polygon points="70.22 128.24 70.22 128.23 70.87 128.23 70.22 128.24"/><path class="cls-4" d="M64.84,124.83a1.51,1.51,0,1,1,1.5,1.51A1.5,1.5,0,0,1,64.84,124.83Z"/><path class="cls-4" d="M64.84,130.15a1.51,1.51,0,1,1,1.5,1.51A1.5,1.5,0,0,1,64.84,130.15Z"/><path class="cls-4" d="M70.18,130.57a1.51,1.51,0,1,1,1.5,1.51A1.5,1.5,0,0,1,70.18,130.57Z"/><path class="cls-4" d="M75.52,131.16a1.51,1.51,0,1,1,1.5,1.5A1.51,1.51,0,0,1,75.52,131.16Z"/><path class="cls-4" d="M62.51,130.57A1.51,1.51,0,1,0,61,132.08,1.5,1.5,0,0,0,62.51,130.57Z"/><path class="cls-4" d="M57.17,131.16a1.51,1.51,0,1,0-1.5,1.5A1.51,1.51,0,0,0,57.17,131.16Z"/><path class="cls-4" d="M64.84,119.51a1.51,1.51,0,1,1,1.5,1.51A1.5,1.5,0,0,1,64.84,119.51Z"/><path class="cls-4" d="M68.35,138.07a46.36,46.36,0,0,1-2,5.36,47.77,47.77,0,0,1-2-5.36,2.16,2.16,0,0,1,0-1.87,2.63,2.63,0,0,1,3.91,0A2.19,2.19,0,0,1,68.35,138.07Z"/><path class="cls-4" d="M63.53,137.93a16.34,16.34,0,0,0,1.85,5.35,11.94,11.94,0,0,1-5-3.93,3,3,0,0,1-.75-2.13A1.84,1.84,0,0,1,61,135.83a2.3,2.3,0,0,1,1.84.46A2.59,2.59,0,0,1,63.53,137.93Z"/><path class="cls-4" d="M58.69,138c.07.91.91,2.48,4.46,5.37A20.2,20.2,0,0,1,58,141a8.59,8.59,0,0,1-1.9-1.78,3,3,0,0,1-.73-2.14,1.31,1.31,0,0,1,.32-.7,1.41,1.41,0,0,1,1-.4,2,2,0,0,1,1.45.5A2.26,2.26,0,0,1,58.69,138Z"/><path class="cls-4" d="M69.15,137.93a16.25,16.25,0,0,1-1.84,5.35,11.94,11.94,0,0,0,5-3.93,2.94,2.94,0,0,0,.74-2.13,1.84,1.84,0,0,0-1.37-1.39,2.28,2.28,0,0,0-1.84.46A2.66,2.66,0,0,0,69.15,137.93Z"/><path class="cls-4" d="M74,138c-.07.91-.92,2.48-4.46,5.37A20.09,20.09,0,0,0,74.65,141a8.56,8.56,0,0,0,1.91-1.78,3,3,0,0,0,.73-2.14,1.31,1.31,0,0,0-.32-.7,1.41,1.41,0,0,0-1-.4,1.94,1.94,0,0,0-1.44.5A2.26,2.26,0,0,0,74,138Z"/><rect class="cls-2" x="158" y="133.07" width="0.66" height="8.41"/><path class="cls-2" d="M163.76,123.91a1.22,1.22,0,0,0,.94,1.71,4.66,4.66,0,0,0,2.56-.1,4.81,4.81,0,0,1-2.63.42,1.71,1.71,0,0,1-1.51-2.19l.64.16Z"/><path class="cls-2" d="M164.26,128a1.62,1.62,0,0,1-2.12,2.29c1.26.4,2.42-.87,1.56-1.94l.56-.35Z"/><path class="cls-2" d="M164.48,131.47c.68,1.68-1.1,2.47-2.34,1.57,1,.51,2.53-.08,1.75-1.28l.59-.29Z"/><path class="cls-2" d="M165.3,134.49a1.51,1.51,0,0,1-2.47,1.35,1.58,1.58,0,0,0,1.47-.07,1,1,0,0,0,.36-1.16l.64-.12Z"/><path class="cls-2" d="M165.89,137c.59,1.57-1.09,2.44-2.36,1.85a1.9,1.9,0,0,0,1.59-.31.92.92,0,0,0,.17-1.27l.6-.27Z"/><path class="cls-2" d="M162.7,119.56H162a50.54,50.54,0,0,0-.72-9.09,50.12,50.12,0,0,1-.74-9.19,50.12,50.12,0,0,1,.74-9.19A50.54,50.54,0,0,0,162,83a50.54,50.54,0,0,0-.72-9.09,50.12,50.12,0,0,1-.74-9.19c0-4.58.19-6.91.37-9.16s.36-4.56.36-9.12H162c0,4.59-.18,6.92-.36,9.17s-.37,4.56-.37,9.11a49.31,49.31,0,0,0,.73,9.09A50.34,50.34,0,0,1,162.7,83a50.34,50.34,0,0,1-.73,9.19,49.39,49.39,0,0,0-.73,9.09,49.39,49.39,0,0,0,.73,9.09A50.34,50.34,0,0,1,162.7,119.56Z"/><rect class="cls-2" x="164.37" y="112.72" width="0.66" height="6.03" transform="translate(-21.03 193.37) rotate(-57.78)"/><rect class="cls-2" x="164.06" y="108.11" width="0.66" height="6.76" transform="matrix(0.53, -0.85, 0.85, 0.53, -17.57, 191.13)"/><rect class="cls-2" x="163.81" y="103.61" width="0.66" height="7.35" transform="translate(-14.13 188.96) rotate(-57.78)"/><rect class="cls-2" x="163.75" y="99.45" width="0.66" height="7.48" transform="translate(-10.7 187) rotate(-57.78)"/><rect class="cls-2" x="163.81" y="95.5" width="0.66" height="7.34" transform="translate(-7.27 185.17) rotate(-57.78)"/><rect class="cls-2" x="164.01" y="91.82" width="0.66" height="6.86" transform="translate(-3.86 183.52) rotate(-57.78)"/><rect class="cls-2" x="164.29" y="88.28" width="0.66" height="6.2" transform="translate(-0.45 181.94) rotate(-57.78)"/><rect class="cls-2" x="164.45" y="84.51" width="0.66" height="5.82" transform="translate(2.97 180.23) rotate(-57.78)"/><rect class="cls-2" x="164.48" y="80.51" width="0.66" height="5.76" transform="translate(6.39 178.36) rotate(-57.78)"/><rect class="cls-2" x="164.37" y="76.25" width="0.66" height="6.03" transform="translate(9.83 176.34) rotate(-57.78)"/><rect class="cls-2" x="164.06" y="71.65" width="0.66" height="6.74" transform="translate(13.29 174.12) rotate(-57.79)"/><rect class="cls-2" x="163.81" y="67.14" width="0.66" height="7.34" transform="translate(16.73 171.93) rotate(-57.78)"/><rect class="cls-2" x="163.75" y="62.97" width="0.66" height="7.48" transform="translate(20.17 169.98) rotate(-57.79)"/><rect class="cls-2" x="163.78" y="58.97" width="0.66" height="7.42" transform="translate(23.59 168.1) rotate(-57.78)"/><rect class="cls-2" x="163.88" y="55.11" width="0.66" height="7.16" transform="translate(27.01 166.34) rotate(-57.78)"/><rect class="cls-2" x="164.03" y="51.32" width="0.66" height="6.82" transform="translate(30.42 164.6) rotate(-57.78)"/><rect class="cls-2" x="164.1" y="47.41" width="0.66" height="6.65" transform="translate(33.85 162.8) rotate(-57.78)"/><path class="cls-2" d="M123.17,147.54A95.79,95.79,0,0,1,140.25,86.1l.54.38a95.2,95.2,0,0,0-17,61Z"/><rect class="cls-2" x="150.24" y="80.44" width="0.66" height="12.53" transform="translate(1.53 176.01) rotate(-60.87)"/><rect class="cls-2" x="136.17" y="88.1" width="0.66" height="4.45"/><path class="cls-1" d="M136.83,113.75a4.11,4.11,0,1,1,4.11-4.11A4.11,4.11,0,0,1,136.83,113.75Zm0-7.56a3.45,3.45,0,1,0,3.45,3.45A3.45,3.45,0,0,0,136.83,106.19Z"/><path class="cls-1" d="M134.47,109.64a2.36,2.36,0,1,1,2.36,2.36A2.36,2.36,0,0,1,134.47,109.64Z"/><rect x="86.84" y="114.19" width="0.66" height="21.52"/><polygon class="cls-2" points="64.74 99.46 62.91 99.46 62.14 101.22 61.37 99.46 59.55 99.46 62.14 92.56 64.74 99.46"/><polygon class="cls-2" points="55.15 106.59 53.33 106.59 52.56 108.35 51.78 106.59 49.96 106.59 52.56 99.69 55.15 106.59"/><polygon class="cls-2" points="74.09 106 72.27 106 71.5 107.76 70.72 106 68.9 106 71.5 99.1 74.09 106"/><path class="cls-2" d="M98.5,59.18a.33.33,0,0,1-.28-.15,7.23,7.23,0,0,0-6.48-3.36,7.32,7.32,0,0,0-4.94,2.62.33.33,0,0,1-.47,0,.32.32,0,0,1,0-.46A8,8,0,0,1,91.69,55a7.85,7.85,0,0,1,7.08,3.65.34.34,0,0,1-.09.46A.41.41,0,0,1,98.5,59.18Z"/><path class="cls-2" d="M118.91,56.47c-4.43-1.86-9.42-3.23-14.14-1.93-.33.07-.61.25-1,.35a.09.09,0,0,1-.13-.07,4.7,4.7,0,0,1,3.57-2.68c2.9-.44,5.71.87,8.24,2A31.49,31.49,0,0,1,119,56.3a.1.1,0,0,1-.09.17Z"/><path class="cls-2" d="M119.24,59.69a.32.32,0,0,1-.23-.1c-.21-.2-5.22-5-10.27-3.28A7.55,7.55,0,0,0,106,58a.31.31,0,0,1-.46,0,.32.32,0,0,1,0-.46,8,8,0,0,1,3-1.86c5.44-1.88,10.73,3.22,11,3.43a.34.34,0,0,1,0,.47A.33.33,0,0,1,119.24,59.69Z"/><path class="cls-2" d="M87.47,61.12l-1.17-.61a7,7,0,0,1,3.36-3.28c2.93-1.28,6.61-.21,9.15,2.64l-1,.88c-2.13-2.39-5.27-3.34-7.64-2.31A5.72,5.72,0,0,0,87.47,61.12Z"/><path class="cls-2" d="M92.46,63h-.27a9.94,9.94,0,0,1-5.72-2,.33.33,0,1,1,.41-.52,9.1,9.1,0,0,0,11.18,0,.32.32,0,0,1,.46.06.33.33,0,0,1-.06.46A9.87,9.87,0,0,1,92.46,63Z"/><path class="cls-2" d="M90.59,59.26a1.64,1.64,0,1,1,1.64,1.64A1.64,1.64,0,0,1,90.59,59.26Z"/><path class="cls-2" d="M92.23,62.54a3.37,3.37,0,0,1-3.37-3.37,3.84,3.84,0,0,1,.08-.76l.08-.35.65.14-.09.36a3.08,3.08,0,0,0-.06.61,2.71,2.71,0,1,0,5.37-.49L94.71,58l.64-.17.18.69a2.85,2.85,0,0,1,.06.63A3.37,3.37,0,0,1,92.23,62.54Z"/><path class="cls-2" d="M109.16,59.52a1.64,1.64,0,1,1,1.64,1.64A1.63,1.63,0,0,1,109.16,59.52Z"/><path class="cls-2" d="M110.8,62.66a3.23,3.23,0,0,1-3.23-3.23,3,3,0,0,1,.08-.73l.07-.33.65.14-.08.34a2.87,2.87,0,0,0-.07.58,2.58,2.58,0,0,0,5.15,0,3.57,3.57,0,0,0,0-.46l-.18-.63.64-.17.18.66a3.21,3.21,0,0,1-3.17,3.83Z"/><path class="cls-2" d="M98.69,60.43a13,13,0,0,1-4.21,4.48.23.23,0,0,1-.3-.06.23.23,0,0,1,0-.28,12.07,12.07,0,0,0,3.29-4.71.66.66,0,1,1,1.18.57Z"/><path class="cls-2" d="M106.6,60.15a3.52,3.52,0,0,0,2.62,3.71.21.21,0,0,1-.09.41,4.42,4.42,0,0,1-3.85-4.16.66.66,0,1,1,1.32,0Z"/><path class="cls-2" d="M116.92,60.84c-2.51-2.51-5.81-3.45-8.2-2.34a5.43,5.43,0,0,0-2.23,2l-1.1-.72a6.78,6.78,0,0,1,2.78-2.48c2.89-1.33,6.78-.29,9.68,2.61Z"/><path class="cls-2" d="M111.59,63.06h-.19a8,8,0,0,1-5.71-2.7.34.34,0,0,1,0-.47.32.32,0,0,1,.46,0,7.3,7.3,0,0,0,5.23,2.47h.17a7.31,7.31,0,0,0,5.14-2.2l.1-.1H117l-.27-.24a.33.33,0,0,1,.48-.45,4.28,4.28,0,0,0,.43.36,4.31,4.31,0,0,1,.5.43l.54.56h-1.56A8,8,0,0,1,111.59,63.06Z"/><path class="cls-2" d="M105.28,60.4l-.94-1.84,1.86.9a.69.69,0,1,1-.92.94Z"/><path class="cls-2" d="M99.21,68.77c2-1.67,3.72,1.5,5.56,1a1.8,1.8,0,0,0,1.34-1.7,2.28,2.28,0,0,0-1.61-1.76.21.21,0,0,1,.12-.4c2.52.63,3,3.57.46,4.68-1.5.68-3-.6-4.26-1a.76.76,0,0,0-.78.24.66.66,0,1,1-.83-1Z"/><path class="cls-2" d="M104.27,72.29a6,6,0,0,1,4.14.77c1.15.62,2.08,1.33,2.82,1,1.35-.5,2.18-2.58.72-3.52a3.22,3.22,0,0,0-1.53-.6.32.32,0,0,1,.06-.63c3.7.14,4.39,4.2,1.27,5.94-1.34.7-2.9-.22-4.06-.74a4.19,4.19,0,0,0-3-.31,1,1,0,1,1-.44-1.93Z"/><path class="cls-2" d="M97.23,74.43c-1.48-.36-2.6.82-4.16,1.1a3.25,3.25,0,0,1-3.16-1.94c-.93-1.85.9-3.79,2.66-3.89a.32.32,0,0,1,.1.63A2.51,2.51,0,0,0,90.74,72c-.33,1.06,1.06,2.34,2.1,2.09.83-.26,1.72-1.11,2.72-1.38s2.8-.64,2.83.81a1,1,0,0,1-1.16.93Z"/><path class="cls-2" d="M101.34,80.33h-.09A5.93,5.93,0,0,1,99,79.84a.33.33,0,0,1,.26-.61,5,5,0,0,0,2,.44,5.25,5.25,0,0,0,2.07-.39.33.33,0,0,1,.43.18.34.34,0,0,1-.18.43A6,6,0,0,1,101.34,80.33Z"/><path class="cls-2" d="M107.34,78.54l-.47-2.12a.19.19,0,0,0-.3-.13,5.05,5.05,0,0,1-1.19.4c-.85.29-1.3-.82-2.46-.75-.82,0-.85.6-1.66.61-1,0-1.06-.76-2-.78-1.08,0-1.72,1.07-2.4.74a3.21,3.21,0,0,1-.76-.29.2.2,0,0,0-.31.15c-.07.59-.13,1.18-.2,1.77a.21.21,0,0,0,.32.19,3.66,3.66,0,0,1,1.46-.56c1.21-.17,1.65.44,3,.6,1.69.2,2.06-.62,3.7-.57a5.67,5.67,0,0,1,2.92,1A.2.2,0,0,0,107.34,78.54Z"/><path class="cls-2" d="M83.45,62.94a3.05,3.05,0,0,1-2.9-1.7,3,3,0,0,1,.11-2.31A2.14,2.14,0,0,1,82,57.74a2.46,2.46,0,0,1,2,.4l.31-.63a17,17,0,0,0,1.5-5.46l.65.07a17.3,17.3,0,0,1-1.56,5.67c-.16.35-.33.68-.51,1a.35.35,0,0,1-.23.16.3.3,0,0,1-.27-.08,2.07,2.07,0,0,0-1.74-.5,1.55,1.55,0,0,0-.9.85A2.26,2.26,0,0,0,81.17,61a2.49,2.49,0,0,0,2.48,1.28,3.21,3.21,0,0,0,2.68-2.35l.63.2a3.85,3.85,0,0,1-3.26,2.8Z"/><path class="cls-2" d="M81.72,73.33a3.35,3.35,0,0,1-.71-.07,3.56,3.56,0,0,1-2.86-2.63c-.18-1.19.42-3,2-3.32a2.75,2.75,0,0,1,2.92,1.56,10.34,10.34,0,0,0,1.28-1.37,10.71,10.71,0,0,0,2.07-4.73l.65.12a11.5,11.5,0,0,1-2.2,5,10.67,10.67,0,0,1-1.73,1.76.3.3,0,0,1-.3.06.31.31,0,0,1-.22-.21A2.15,2.15,0,0,0,80.3,68a2.25,2.25,0,0,0-1.49,2.57,2.92,2.92,0,0,0,2.34,2.09c1.92.41,4.22-1.24,5.61-4l.59.29C86,71.61,83.76,73.33,81.72,73.33Z"/><path class="cls-1" d="M101.44,126.83A1.69,1.69,0,0,0,99.55,128a.17.17,0,0,0,.18.21,1,1,0,0,1,1.12.5s0,.08,0,.17a1.17,1.17,0,0,1-.23.41,1.15,1.15,0,0,1-.65.33,1.81,1.81,0,0,1-.83,0,6.12,6.12,0,0,1-1.2-.8c-1.44-1.24-1.23-3.91-.93-7.94,0-.32.05-.66.08-1a3,3,0,0,0,2.58,1,2.52,2.52,0,0,0,2.65-2.75,2.22,2.22,0,0,0-2.63-1.95.17.17,0,0,0-.1.24c.45.91.37,1.6.19,1.78s-.28.36-.5.46c-.79.33-1.53-.22-2-.94,0-.15,0-.28,0-.43.43-8.08.69-13-2.27-16.76-1-1.28-3.7-4.19-7.33-3.84-2.92.28-6,2.59-6,5.57,0,2.15,1.71,4.66,4,4.81h0a4.16,4.16,0,0,0,2.73-.52c2.18-1.34,1.21-4.92-1.1-5a.16.16,0,0,0-.16.21,3.06,3.06,0,0,1-.36,2.77A1.1,1.1,0,0,1,86,105a2.23,2.23,0,0,1-.42.06,3,3,0,0,1-2-2.81c0-1.8,2.29-3.42,4.27-3.61,2.72-.27,5,2.3,5.57,3.09,1.41,1.81,2,3.9,2.08,7A3.61,3.61,0,0,1,93.79,112l-.28.16a1.92,1.92,0,0,1-2.17-.57c-.76-.7-.22-1.89.4-2.81a.15.15,0,0,0-.15-.15,2.73,2.73,0,0,0-2.31,1.21c-1.45,2,.19,4.69,2.42,4.91a4.47,4.47,0,0,0,3.72-1.49c0,1.19-.11,2.49-.19,3.93-.07,1.25-.16,2.42-.24,3.49-.35,4.63-.58,7.69,1.61,9.59a5.77,5.77,0,0,0,3.38,1.52h.09a4.12,4.12,0,0,0,1.81-.31C103.85,130.58,103.7,127.16,101.44,126.83Z"/><path class="cls-1" d="M84.23,96.46a4.92,4.92,0,0,1-3.78,1c-2.12-.32-4.3-2.25-3.13-4.51a2.44,2.44,0,0,1,1.06-1.12.17.17,0,0,1,.24.08s.55,1.2.55,1.21a8.76,8.76,0,0,1,.68,1.43,1.37,1.37,0,0,0,.37.7,4.46,4.46,0,0,0,3.9.94.14.14,0,0,1,.11.24Z"/><path class="cls-1" d="M99.28,136.12a2.45,2.45,0,1,1,2.44,2.44A2.44,2.44,0,0,1,99.28,136.12Z"/><path class="cls-1" d="M90.89,117.66a1.58,1.58,0,1,1,1.58,1.57A1.57,1.57,0,0,1,90.89,117.66Z"/><path class="cls-1" d="M92.92,59a.65.65,0,0,0,.64.67.67.67,0,0,0,.74-.58.66.66,0,0,0-.64-.67A.68.68,0,0,0,92.92,59Z"/><path class="cls-1" d="M111.75,59a.64.64,0,0,0,.64.67.63.63,0,1,0,.09-1.25A.67.67,0,0,0,111.75,59Z"/><path class="cls-2" d="M89.58,90.55a5.84,5.84,0,0,1-1.76-.29l.2-.62a4.82,4.82,0,0,0,2.39.17c2.59-.51,4.7-3.47,5.25-7.37l.65.09c-.58,4.17-2.9,7.36-5.77,7.92A4.47,4.47,0,0,1,89.58,90.55Z"/><path class="cls-3" d="M115.62,169.08V147.56a3.47,3.47,0,0,1-2.89-1.22,3.05,3.05,0,0,1-.61-1.9,3.3,3.3,0,0,1,1.14-2.35c-.19-.18-.37-.37-.56-.56h-5.34c.16,1.91.44,4.27.93,6.95a70.77,70.77,0,0,0,2.19,8.77A66.72,66.72,0,0,0,115.62,169.08Z"/><path d="M95.66,145.61a116.28,116.28,0,0,0,15.61,47.87,5,5,0,0,1,2-.43,4.82,4.82,0,0,1,1.59.27,5,5,0,0,1,1.07-.3,6.14,6.14,0,0,1,3.89.7,4.43,4.43,0,0,1,4.94,3.13,4.21,4.21,0,0,1,1.11.93,4.44,4.44,0,0,1,.64,1c2.08-.72,4.23-1.5,6.43-2.36,2.84-1.12,5.53-2.28,8.07-3.44a59.48,59.48,0,0,1-16.39-11.85c-15.81-16.26-17.29-36.89-17.49-43.5Z"/><path d="M61.45,143.23A75.05,75.05,0,0,1,56.7,170a75,75,0,0,1-10,18.25V163.54A2.89,2.89,0,0,0,48,165.48a2.54,2.54,0,0,0,2.81,0,2.63,2.63,0,0,0,.82-2.18,3.33,3.33,0,0,0-1-2.17A4.4,4.4,0,0,0,48.44,160a9.51,9.51,0,0,0-3.08-.17c-1.41.13-1.53.37-4.3.88,0,0-.82.15-2.28.28-1.63.15-2.19.08-2.53-.28-.19-.2-.14-.32-.51-1a8.08,8.08,0,0,0-.66-1,7.27,7.27,0,0,0,1.36.53,9,9,0,0,0,3,.17,19.69,19.69,0,0,0,2.86-.25,14.58,14.58,0,0,0,4.58-1.59,7,7,0,0,0,1.82-1.35A6.72,6.72,0,0,0,50.08,154c.4-1.06.4-1.63.53-6.49a5.94,5.94,0,0,0-.27-2.69,5.08,5.08,0,0,0-1.91-2.22v-.84H58.52a11.66,11.66,0,0,0,1.64,1C60.62,142.9,61.05,143.08,61.45,143.23Z"/><path class="cls-1" d="M154.36,141.53H117.72l-.56.56a3.09,3.09,0,0,1-1.54,5.47v21.52A58.47,58.47,0,0,0,141,193c2.34-1.07,4.76-2.25,7.24-3.55,2.13-1.12,4.17-2.25,6.1-3.37Z"/><path class="cls-2" d="M116.86,229.92c-3.44,1.22-9.94,1.64-12.35-1.63-2.1-3.66.67-8.53,1.34-12.21.15-.91.43-2-.22-2.74a10.79,10.79,0,0,1-3.75-3.32,9.34,9.34,0,0,0,3,2.59c1.71.55,1.63,2.06,1.42,3.55-1.29,7.17-4.7,14.07,6.14,12.88a12.51,12.51,0,0,0,3.65-.95l.73,1.83Z"/><path d="M140.87,193.3a59.84,59.84,0,0,1-16.47-11.92c-14.62-15-17.29-33.84-17.59-43.72a116.3,116.3,0,0,0-6-27.21A116.27,116.27,0,0,0,91.24,90l.56-.34a116.93,116.93,0,0,1,9.6,20.61,117.1,117.1,0,0,1,6.07,27.39c.29,9.81,2.94,28.44,17.4,43.3a59.46,59.46,0,0,0,16.29,11.79Z"/><path class="cls-2" d="M110.91,230.3c-2.09,0-4.73-.36-6-2-1.71-2.14-.71-5.9.18-9.22.69-2.59,1.34-5,.37-5.69a1.69,1.69,0,0,0-.33-.18,8.5,8.5,0,0,1-1.13-.67,10,10,0,0,1-2.35-2.33.33.33,0,0,1,.07-.46.32.32,0,0,1,.46.07,9.29,9.29,0,0,0,2.2,2.18,6.5,6.5,0,0,0,1,.62l.4.22c1.36.92.68,3.47-.11,6.41-.84,3.17-1.8,6.76-.29,8.64,1.93,2.42,7.56,1.65,8.2,1.56a12.44,12.44,0,0,0,2.78-.75.33.33,0,1,1,.24.61,13.16,13.16,0,0,1-2.92.79A20.2,20.2,0,0,1,110.91,230.3Z"/><path class="cls-3" d="M57.7,199.61l-11-6.1v-.84a78.93,78.93,0,0,0,12.51-21.74,78,78,0,0,0,2.94-9.7,78.19,78.19,0,0,0,2-17.3,14.43,14.43,0,0,0,7.81-1,14.77,14.77,0,0,0,7.3-7.17,97.21,97.21,0,0,1-6.16,40.82A95.12,95.12,0,0,1,62.27,197a4.74,4.74,0,0,0-1.34.49,4.42,4.42,0,0,0-1.13.89,4.9,4.9,0,0,0-1.13.5A4.42,4.42,0,0,0,57.7,199.61Z"/><path class="cls-4" d="M111.27,193.48a116.28,116.28,0,0,1-15.61-47.87H79.43a95.55,95.55,0,0,1-5.08,27.62A95.17,95.17,0,0,1,62.27,197a4.86,4.86,0,0,1,1.47-.78,4.58,4.58,0,0,1,1.48-.24,5.83,5.83,0,0,1,1.08-.78,5.37,5.37,0,0,1,1.23-.54,4.89,4.89,0,0,1,1.59-1.12,5,5,0,0,1,2.36-.4l.67-.23,16.08-10.32L106.66,195l.63-.19a5.9,5.9,0,0,1,1.4-.8,5.58,5.58,0,0,1,1.48-.36h.71Z"/><rect class="cls-2" x="93.39" y="178.32" width="0.66" height="7.95"/><rect class="cls-2" x="98.87" y="182.04" width="0.66" height="7.95"/><rect class="cls-2" x="104.36" y="185.75" width="0.66" height="7.93"/><rect class="cls-2" x="82.42" y="178.26" width="0.66" height="7.82"/><rect class="cls-2" x="76.93" y="181.78" width="0.66" height="7.82"/><rect class="cls-2" x="71.45" y="185.3" width="0.66" height="7.67"/><rect class="cls-2" x="87.9" y="174.79" width="0.66" height="7.77"/><path d="M72.15,192.88l16.08-10.32L106.66,195a6.88,6.88,0,0,0-1.68.82,7.26,7.26,0,0,0-1.32,1.12L88.18,186.5l-11.3,7.26a7.74,7.74,0,0,0-1.75-.73A7.33,7.33,0,0,0,72.15,192.88Z"/><polygon class="cls-2" points="147.29 161.83 149.11 161.83 149.89 160.07 150.66 161.83 152.48 161.83 149.89 168.73 147.29 161.83"/><polygon class="cls-2" points="119.18 166.51 121 166.51 121.78 164.75 122.55 166.51 124.37 166.51 121.78 173.41 119.18 166.51"/><polygon class="cls-2" points="118.88 148.9 120.71 148.9 121.48 147.15 122.25 148.9 124.08 148.9 121.48 155.8 118.88 148.9"/><path d="M158.2,146.87v36.91l-3.84,2.3V140.69a6.73,6.73,0,0,0,4,.48,4.47,4.47,0,0,0-.13,5.7Z"/><path class="cls-1" d="M160.94,148.24V182l-2.74,1.75V146.87a4,4,0,0,0,1.54,1.1A3.77,3.77,0,0,0,160.94,148.24Z"/><path class="cls-3" d="M160.94,182V148.24a4,4,0,0,0,3-6.91v-1.39a6.82,6.82,0,0,0,.76.12,6.41,6.41,0,0,0,1.33,0,7.39,7.39,0,0,0,1.75-.36c1-.35,1.81-.61,2.2-1.32a2.89,2.89,0,0,0-.22-2.55,2.25,2.25,0,0,0,.7-1.24,2.38,2.38,0,0,0-.54-1.9,1.76,1.76,0,0,0,.78-1.08,2.07,2.07,0,0,0-1.32-2.16,2.16,2.16,0,0,0,.14-1.93,2.08,2.08,0,0,0-1.85-1.2,1.24,1.24,0,0,0,.4-1,1.19,1.19,0,0,0-.39-.76l.36.1a2.22,2.22,0,0,0,1,.29,2.41,2.41,0,0,0,2-.84,2.18,2.18,0,0,0,.45-1.26h2.24v50c-2.34,1.88-4.86,3.79-7.55,5.7C164.4,179.74,162.65,180.92,160.94,182Z"/><rect x="154.03" y="140.69" width="0.66" height="45.39"/><rect x="157.87" y="146.87" width="0.66" height="36.91"/><rect x="160.61" y="148.24" width="0.66" height="33.79"/><rect class="cls-2" x="109.84" y="191.56" width="0.66" height="2.12"/><polygon class="cls-2" points="79.4 149.51 79.05 148.96 88.71 142.75 96.1 147.75 95.73 148.3 88.7 143.54 79.4 149.51"/><polygon class="cls-2" points="78.83 155.1 78.47 154.54 88.65 148.01 96.95 153.63 96.58 154.17 88.64 148.8 78.83 155.1"/><polygon class="cls-2" points="77.88 160.92 77.53 160.37 88.59 153.26 98.12 159.71 97.75 160.26 88.58 154.05 77.88 160.92"/><polygon class="cls-2" points="76.49 167.03 76.14 166.47 88.52 158.52 99.81 166.16 99.44 166.7 88.51 159.31 76.49 167.03"/><polygon class="cls-2" points="74.53 173.5 74.17 172.95 88.46 163.77 101.98 172.92 101.61 173.47 88.45 164.56 74.53 173.5"/><polygon class="cls-2" points="104.44 180.68 88.39 169.82 71.84 180.44 71.49 179.88 88.4 169.03 104.81 180.14 104.44 180.68"/><path class="cls-3" d="M103.66,197,88.18,186.5l-11.3,7.26a9,9,0,0,1,1.73,1.63,8.72,8.72,0,0,1,1.52,2.69,6.9,6.9,0,0,1,1-3.76c2-3.11,6-3.29,6.86-3.29a10,10,0,0,1,3.52.67,14.9,14.9,0,0,1,4.36,2.43,22.79,22.79,0,0,1,5.87,7,7.15,7.15,0,0,1,.87-2.74A7.6,7.6,0,0,1,103.66,197Z"/><polygon points="103.47 197.25 88.18 186.89 77.06 194.04 76.7 193.48 88.19 186.11 103.84 196.7 103.47 197.25"/><polygon points="106.47 195.3 88.23 182.95 72.33 193.16 71.97 192.61 88.24 182.16 106.84 194.76 106.47 195.3"/><polygon class="cls-2" points="108.17 188.5 88.32 175.07 68.16 188.02 67.8 187.47 88.33 174.28 108.54 187.96 108.17 188.5"/><path class="cls-4" d="M64.19,143.93a78.19,78.19,0,0,1-2,17.3,78,78,0,0,1-2.94,9.7,78.93,78.93,0,0,1-12.51,21.74v-4.45A75,75,0,0,0,56.7,170a75.05,75.05,0,0,0,4.75-26.74Z"/><path d="M47,192.88l-.51-.42A79.12,79.12,0,0,0,59,170.82a78,78,0,0,0,2.92-9.67,78.14,78.14,0,0,0,2-17.22h.66a78.3,78.3,0,0,1-2,17.37,78.75,78.75,0,0,1-3,9.75A79.55,79.55,0,0,1,47,192.88Z"/><path d="M47,188.42l-.53-.39a74.47,74.47,0,0,0,9.9-18.18,74.33,74.33,0,0,0,4.73-26.62h.66A75.28,75.28,0,0,1,57,170.09,75.2,75.2,0,0,1,47,188.42Z"/><path class="cls-4" d="M38.82,143.33v-1.4a4,4,0,0,0,5.2.24l.44-.07v8.1a7.28,7.28,0,0,0-1.13,4.24,2.72,2.72,0,0,0-2,.1,3.74,3.74,0,0,0,.16-.52,2.4,2.4,0,0,0-.07-1.41,2.48,2.48,0,0,0-.32-.55l-.15-.12a2.79,2.79,0,0,0,.4-1.56,2.47,2.47,0,0,0-.35-1,1,1,0,0,0-.45-.35,2.47,2.47,0,0,0,.22-1.94,2,2,0,0,0-1.33-.83,1.6,1.6,0,0,0,.67-.84,1.66,1.66,0,0,0-.14-1.29A1.72,1.72,0,0,0,38.82,143.33Z"/><path class="cls-1" d="M46.75,163.48v69l-5.6,4.38-5.6-4.38v-68a14.59,14.59,0,0,0,2,0c3-.16,4.3-1.14,7.09-1.14A11.78,11.78,0,0,1,46.75,163.48Z"/><polygon class="cls-2" points="41.15 237.24 35.22 232.6 35.22 164.41 35.88 164.41 35.88 232.28 41.15 236.41 46.42 232.28 46.42 163.48 47.08 163.48 47.08 232.6 41.15 237.24"/><path class="cls-4" d="M131.18,166.74a13.22,13.22,0,0,1-3.69,5.11A5.56,5.56,0,0,0,130.2,173a5.69,5.69,0,0,0,2.56-.23,6.13,6.13,0,0,0,3.69,4.1,6,6,0,0,0,2.47-1.77,6.36,6.36,0,0,0,1.22-2.33,5.69,5.69,0,0,0,2.56.23,5.56,5.56,0,0,0,2.71-1.17,13.07,13.07,0,0,1-2-2.19,13.38,13.38,0,0,1-1.64-2.92,13,13,0,0,1-10.54,0Z"/><path d="M133.9,155.11l-1.65-.07-1.65-.12a71,71,0,0,1-8.33-1.16l-.09,0a2.62,2.62,0,0,1,0-.28,14.28,14.28,0,0,1,28.56,0v.28h-.1a73.21,73.21,0,0,1-8.33,1.17l-1.65.12-1.64.07Z"/><path class="cls-4" d="M122.76,149.38l.37.07a67.87,67.87,0,0,0,26.64,0l.37-.07-.8-2.08a66,66,0,0,1-25.78,0Z"/><path d="M133.9,155.11H139v12.45a17.89,17.89,0,0,1-2.69.18,17.21,17.21,0,0,1-2.42-.18Z"/><path d="M122.66,157.18a75.63,75.63,0,0,0,7.94,1v8.27A14.27,14.27,0,0,1,122.66,157.18Z"/><path d="M130.93,167l-.46-.21a14.43,14.43,0,0,1-8.12-9.53l-.14-.5.51.1a74,74,0,0,0,7.91,1l.3,0Zm-7.8-9.4a14,14,0,0,0,7.15,8.37v-7.45C127.88,158.33,125.47,158,123.13,157.6Z"/><path d="M142.3,166.49v-8.27a78.75,78.75,0,0,0,7.94-1A14.27,14.27,0,0,1,142.3,166.49Z"/><path d="M142,167v-9.09l.3,0a78.25,78.25,0,0,0,7.91-1l.51-.1-.13.5a14.49,14.49,0,0,1-8.13,9.53Zm.66-8.48V166a13.82,13.82,0,0,0,7.15-8.37C147.38,158,145,158.33,142.63,158.52Z"/><path d="M139,155.44H133.9c-.57,0-1.12,0-1.67-.08l-1.65-.11a73.46,73.46,0,0,1-8.38-1.18l-.34,0v-.26c0-.1,0-.2,0-.3a14.61,14.61,0,1,1,29.22,0v.3l0,.24-.34.08a74.07,74.07,0,0,1-8.38,1.17l-1.65.11c-.55,0-1.1.06-1.65.08Zm-16.51-2a71.6,71.6,0,0,0,8.13,1.13l1.64.12,1.64.07H139l1.63-.07,1.64-.12a71.89,71.89,0,0,0,8.13-1.12h0a13.95,13.95,0,1,0-27.9,0Z"/><path class="cls-4" d="M129.91,257c-1.19-2.31-2.38-4.63-3.57-6.93l-1.77-3.44-7.9-15.34a103.91,103.91,0,0,1-32,1.93,101.88,101.88,0,0,1-15.49-2.72q-3.89,6.87-7.8,13.74l-1.88,3.31L54.11,257Z"/><path d="M66.37,235.47l.85.23a107.54,107.54,0,0,0,16.91,3c3.41.33,6.9.5,10.37.5h.06a112,112,0,0,0,23.8-2.6l.9-.24,2.49,4.84A7,7,0,0,0,118.1,239c-3-.63-6.48,1.14-8.54,4.48a10.27,10.27,0,0,0-16,.33A10.77,10.77,0,0,0,77.31,243a8.83,8.83,0,0,0-6.44-5,8.4,8.4,0,0,0-8.3,4.12Z"/><path d="M59.49,247.59l1.88-3.31a1.34,1.34,0,0,0,.66.58,1.45,1.45,0,0,0,1,0l.23-.1a1.43,1.43,0,0,0,.61-1.9,2.33,2.33,0,1,1,.6,3.94,2,2,0,0,1-.67-.42,2.32,2.32,0,0,1-.17.77,2.34,2.34,0,0,1-3.05,1.27A2.31,2.31,0,0,1,59.49,247.59Z"/><path d="M93.6,244.15a.34.34,0,0,1-.26-.12,10.82,10.82,0,0,0-7.87-4,10.68,10.68,0,0,0-7.92,3.21.33.33,0,0,1-.29.1.35.35,0,0,1-.25-.19,8.47,8.47,0,0,0-6.18-4.76,8,8,0,0,0-8,4l-.56-.33a8.67,8.67,0,0,1,8.63-4.29,9,9,0,0,1,6.48,4.72,11.09,11.09,0,0,1,16.2.88,10.59,10.59,0,0,1,15.92-.35c2.13-3.2,5.56-4.9,8.64-4.26A7.22,7.22,0,0,1,122,241l-.49.44a6.57,6.57,0,0,0-3.47-2.08c-2.93-.61-6.22,1.12-8.18,4.32a.35.35,0,0,1-.26.16.38.38,0,0,1-.28-.12,10.32,10.32,0,0,0-7.59-3.52h-.18A10.3,10.3,0,0,0,93.86,244a.32.32,0,0,1-.26.12Z"/><path d="M75.78,245.65c-.83-1.74-2.6-4.71-5.26-5.11a4.38,4.38,0,0,0-.75,0,8.51,8.51,0,0,0-5.71,2.65l-.46-.48a9.17,9.17,0,0,1,6.17-2.83h0a5.53,5.53,0,0,1,.84.06c3,.44,4.87,3.62,5.75,5.47Z"/><path d="M92.41,246.6c-2.25-2.79-4.68-4.31-7-4.41h-.28c-2.22,0-4.63,1.29-7,3.71l-.47-.46c2.48-2.55,5.06-3.9,7.45-3.91h.32c2.53.11,5.13,1.72,7.51,4.66Z"/><path d="M92.67,246.4c-3.13-3.89-5.83-4.48-7.27-4.54h-.3c-1.35,0-3.94.44-7.21,3.81.1-.12,2.31-2.65,5.19-2.07a4.82,4.82,0,0,1,2.34,1.26,4.51,4.51,0,0,1,2.35-1.12A5.2,5.2,0,0,1,92.67,246.4Z"/><path d="M94.75,246.6l-.51-.42c2.37-2.9,4.84-4.41,7.33-4.46h.15c2.49,0,5,1.42,7.37,4.21l-.5.43c-2.27-2.64-4.58-4-6.88-4h-.13C99.29,242.43,97,243.85,94.75,246.6Z"/><path d="M108.84,246.15c-3-3.43-5.45-4.1-7.12-4.1h-.14c-1.65,0-4.16.76-7.09,4.34,1.49-2,3.65-2.88,5.32-2.3a3.54,3.54,0,0,1,1.58,1.19A3.73,3.73,0,0,1,103,244C104.73,243.3,107.09,244.14,108.84,246.15Z"/><path d="M111,246.14l-.59-.29c.59-1.21,2.32-4.09,5.4-4.84a6.81,6.81,0,0,1,1.91-.17,7.65,7.65,0,0,1,5.48,3.6l-.55.36c-.61-.92-2.31-3.1-5-3.3a5.52,5.52,0,0,0-1.7.15C113.1,242.33,111.5,245,111,246.14Z"/><path d="M122.87,244.62c-.38-.58-2.19-3.22-5.22-3.45a6,6,0,0,0-1.81.16c-3.14.76-4.78,3.83-5.19,4.66a4.67,4.67,0,0,1,3.41-2.63,4,4,0,0,1,2.27.45,3.82,3.82,0,0,1,1.93-1.22A4.54,4.54,0,0,1,122.87,244.62Z"/><path class="cls-3" d="M117.66,233.39a107.82,107.82,0,0,1-23.16,2.53c-4.54,0-8.17-.3-10-.48a104.93,104.93,0,0,1-16.4-2.92l-1.68,2.95.85.23a107.54,107.54,0,0,0,16.91,3c3.41.33,6.9.5,10.37.5h.06a112,112,0,0,0,23.8-2.6l.9-.24Z"/><path d="M94.56,239.54q-5.32,0-10.46-.5a108.51,108.51,0,0,1-17-3l-.84-.23.17-.64.85.24a107.86,107.86,0,0,0,16.86,3c3.39.32,6.86.49,10.33.49a112.17,112.17,0,0,0,23.79-2.59l.88-.23.17.63-.89.24A113,113,0,0,1,94.56,239.54Z"/><path class="cls-2" d="M68.05,232.52a104.93,104.93,0,0,0,16.4,2.92c1.88.18,5.51.48,10,.48a107.82,107.82,0,0,0,23.16-2.53l-1-2.06a103.91,103.91,0,0,1-32,1.93,101.88,101.88,0,0,1-15.49-2.72Z"/><path class="cls-1" d="M162.35,167.16a2.09,2.09,0,0,1,4-.76l0,0,.2.49a.15.15,0,0,0,.29-.06,6.25,6.25,0,0,0-.32-1.94,6.35,6.35,0,0,0-.65-1.4h2.43a6.33,6.33,0,0,0-.66,1.4,6.52,6.52,0,0,0-.31,1.94.15.15,0,0,0,.29.06l.2-.49,0,0a2.08,2.08,0,1,1,1.94,2.85,2.21,2.21,0,0,1-.78-.15l-.35-.19-.18-.09a.1.1,0,0,0-.12.15l.34.37.1.11,0,0,0,.06a.21.21,0,0,1,0,.06l.05.07,0,.06,0,.08a1.73,1.73,0,0,1,.14.31l.06.19v0a.24.24,0,0,0,0,.08s0,.05,0,.08a.11.11,0,0,1,0,.05s0,0,0,.07,0,.09,0,.14v.11a2.22,2.22,0,1,1-4.43,0v-.11s0-.1,0-.14,0-.05,0-.07a.11.11,0,0,1,0-.05s0-.05,0-.08l0-.08v0a.6.6,0,0,1,.06-.19,1.23,1.23,0,0,1,.14-.31s0-.05,0-.08l0-.06a.43.43,0,0,0,0-.07l.05-.06,0-.06,0,0,.1-.11.34-.37a.1.1,0,0,0-.12-.15l-.18.09-.35.19a2.21,2.21,0,0,1-.78.15A2.1,2.1,0,0,1,162.35,167.16Z"/><path class="cls-1" d="M162.35,152.35a2.09,2.09,0,0,1,4-.76l0,0,.2.49a.15.15,0,0,0,.29-.05,6.26,6.26,0,0,0-.32-1.95,6,6,0,0,0-.65-1.39h2.43a6,6,0,0,0-.66,1.39,6.53,6.53,0,0,0-.31,1.95.15.15,0,0,0,.29.05l.2-.49,0,0a2.08,2.08,0,1,1,1.94,2.85,2,2,0,0,1-.78-.15l-.35-.18-.18-.1a.1.1,0,0,0-.12.15l.34.37.1.11,0,0a.18.18,0,0,1,0,.07.21.21,0,0,1,0,.06.18.18,0,0,1,.05.07l0,0,0,.08a1.73,1.73,0,0,1,.14.31l.06.19v0a.24.24,0,0,0,0,.08s0,.06,0,.08a.11.11,0,0,1,0,.05s0,0,0,.07,0,.09,0,.14v.11a2.22,2.22,0,1,1-4.43,0V156s0-.09,0-.14,0,0,0-.07a.11.11,0,0,1,0-.05s0-.05,0-.08,0-.05,0-.08v0a.7.7,0,0,1,.06-.19,1.23,1.23,0,0,1,.14-.31s0-.05,0-.08l0,0a.43.43,0,0,1,0-.07l.05-.06a.18.18,0,0,1,0-.07l0,0,.1-.11.34-.37a.1.1,0,0,0-.12-.15l-.18.1-.35.18a2,2,0,0,1-.78.15A2.1,2.1,0,0,1,162.35,152.35Z"/><path class="cls-1" d="M54.59,187.06a2.1,2.1,0,0,1,4,.87v.58a.15.15,0,0,0,.29.06,6.65,6.65,0,0,0,.47-1.93,6.83,6.83,0,0,0-.07-1.56l2.26.95a6.63,6.63,0,0,0-1.15,1.05,6.49,6.49,0,0,0-1.06,1.68.16.16,0,0,0,.25.17l.38-.38,0,0a2.11,2.11,0,1,1,.69,3.41,2,2,0,0,1-.66-.45l-.26-.3-.13-.16a.1.1,0,0,0-.17.09l.17.48,0,.14a0,0,0,0,1,0,0,.31.31,0,0,1,0,.08.24.24,0,0,1,0,.08s0,.05,0,.08a.17.17,0,0,0,0,.07s0,.06,0,.09,0,.23,0,.34,0,.13,0,.2,0,0,0,0,0,.06,0,.08,0,.06,0,.09a.43.43,0,0,0,0,0s0,0,0,.06,0,.09,0,.13a1.17,1.17,0,0,1,0,.11,2.23,2.23,0,1,1-4.12-1.73.54.54,0,0,1,0-.11l.06-.12,0-.06,0,0,.05-.07,0-.06,0,0,.12-.15a2,2,0,0,1,.26-.24l.07,0,.05,0,.07,0,.07,0,.07,0,0,0,.14-.06.46-.21a.1.1,0,0,0,0-.19l-.21,0-.39,0a2,2,0,0,1-.79-.16A2.11,2.11,0,0,1,54.59,187.06Z"/><path class="cls-1" d="M66,152.68a2.1,2.1,0,0,1,4.12-.36v0l.16.51a.15.15,0,0,0,.29,0,6.36,6.36,0,0,0-.64-3.45l2.44.24a7,7,0,0,0-.8,1.34,6.63,6.63,0,0,0-.51,1.92.15.15,0,0,0,.28.09l.26-.47,0,0a2.1,2.1,0,1,1,1.66,3.05,2.17,2.17,0,0,1-.76-.23l-.34-.22L72,155a.1.1,0,0,0-.13.14l.3.41.09.11s0,0,0,0a.16.16,0,0,1,0,.07l0,.06,0,.08,0,.06s0,0,0,.08a2.55,2.55,0,0,1,.11.33c0,.06,0,.13,0,.19v0a.25.25,0,0,1,0,.08.28.28,0,0,1,0,.09v.12a.65.65,0,0,1,0,.14.37.37,0,0,1,0,.11,2.24,2.24,0,1,1-4.45-.44s0-.08,0-.11l0-.14s0,0,0-.07,0,0,0-.05a.24.24,0,0,1,0-.08l0-.08v0l.07-.18a1.49,1.49,0,0,1,.18-.3.18.18,0,0,1,0-.07l0-.06.06-.06,0-.06.06-.06,0,0,.11-.09.37-.35a.1.1,0,0,0-.1-.16l-.19.08-.37.15a2.12,2.12,0,0,1-.8.07A2.1,2.1,0,0,1,66,152.68Z"/><path d="M174.38,257.7h-146V25.57h146ZM29.73,256.38H173.06V26.89H29.73Z"/><path class="cls-2" d="M95.91,201.29c-.22-.29-.45-.58-.69-.85-2.22-2.53-5.66-4.84-7.58-4.33a3.43,3.43,0,0,0-.77.35l-.35-.56a3.42,3.42,0,0,1,1-.42c2.26-.62,5.86,1.81,8.25,4.52q.38.44.72.9Z"/><path class="cls-2" d="M98.82,201.34a16.35,16.35,0,0,0-1.8-2.48c-2-2.33-6.46-6-10-5.06a6.48,6.48,0,0,0-2.93,1.9,5.52,5.52,0,0,0-.32.47l-.57-.34a5.22,5.22,0,0,1,.38-.54,7.07,7.07,0,0,1,3.26-2.13c3.87-1,8.53,2.82,10.68,5.26A17,17,0,0,1,99.39,201Z"/><path class="cls-2" d="M102,202.25l-.5-1a18.3,18.3,0,0,0-2.67-4c-1-1.15-6.39-6.86-12.46-5.78a7.12,7.12,0,0,0-4.43,2.33,6.88,6.88,0,0,0-1.47,4.26H79.8a7.5,7.5,0,0,1,1.62-4.67,7.83,7.83,0,0,1,4.83-2.57c6.42-1.14,12,4.8,13.07,6a18.91,18.91,0,0,1,2.3,3.25,7.59,7.59,0,0,1,1.46-3,7.69,7.69,0,0,1,4.13-2.61l.15.64a7,7,0,0,0-3.77,2.38,7,7,0,0,0-1.48,3.59Z"/><path class="cls-2" d="M116.34,231.36c-.37-4.57-.55-8.58-.7-12.12-.31-7-.54-12.06-2.07-14.86l.57-.31c1.62,2.93,1.84,8.05,2.15,15.14.16,3.54.34,7.54.71,12.1Z"/><path class="cls-2" d="M84.34,233.31c-.6-3.9-1-7.84-1.3-11.71-.17-2.48-.24-4.47-.3-6.23a54.54,54.54,0,0,0-1-10c-.95-4.71-2-10-5.78-11.7-.31-.14-3-1.3-5,.07-1.72,1.23-1.75,3.72-1.72,4.46a4.87,4.87,0,0,0,1,2.94,4.12,4.12,0,0,0,3.1,1.61h0A3.74,3.74,0,0,0,77,200.13a3.52,3.52,0,0,0-1.69-3.8,2.32,2.32,0,0,0-2.15-.17,2.13,2.13,0,0,0-1.13,2,2.38,2.38,0,0,0,.78,1.61,1,1,0,0,0,.74.29,1.39,1.39,0,0,0,.93-.74l.56.34a2,2,0,0,1-1.43,1,1.64,1.64,0,0,1-1.23-.44,3.06,3.06,0,0,1-1-2.07,2.78,2.78,0,0,1,1.49-2.59,2.93,2.93,0,0,1,2.75.18,4.12,4.12,0,0,1,2,4.53,4.36,4.36,0,0,1-4.29,3.14h0a4.81,4.81,0,0,1-3.61-1.85,5.47,5.47,0,0,1-1.14-3.33c0-.82,0-3.61,2-5,2.24-1.59,5.28-.3,5.62-.14,4.06,1.79,5.17,7.3,6.16,12.17a55.1,55.1,0,0,1,1,10.09c.06,1.76.13,3.74.3,6.21.26,3.86.7,7.78,1.29,11.66Z"/><path class="cls-2" d="M71.13,204.29a4.48,4.48,0,0,1-1.74-.34,5.45,5.45,0,0,1-3-3.7c-.2-.65-1.09-4,1.14-6.11a5.47,5.47,0,0,1,3.95-1.36l0,.66A4.83,4.83,0,0,0,68,194.62c-1.95,1.84-1.14,4.85-1,5.43a4.3,4.3,0,0,0,6.9,2.7l.38.54A6,6,0,0,1,71.13,204.29Z"/><path class="cls-2" d="M68.12,205.21a3.84,3.84,0,0,1-1.1-.15,5,5,0,0,1-3-2.86,6,6,0,0,1-.1-5,5.94,5.94,0,0,1,3.55-2.9l.2.63a5.27,5.27,0,0,0-3.15,2.55,5.42,5.42,0,0,0,.09,4.44,4.4,4.4,0,0,0,2.63,2.5,4.57,4.57,0,0,0,3.58-.75l.36.55A5.73,5.73,0,0,1,68.12,205.21Z"/><path class="cls-2" d="M65.84,206.25h-.2c-2.65-.14-4.1-3-4.49-4.46-.7-2.62.07-4.11.82-4.89a4.58,4.58,0,0,1,3.25-1.27v.66a3.89,3.89,0,0,0-2.77,1.07c-.94,1-1.16,2.4-.67,4.26.36,1.32,1.62,3.86,3.89,4a3.89,3.89,0,0,0,2.64-1l.42.51A4.61,4.61,0,0,1,65.84,206.25Z"/><path class="cls-2" d="M63.47,207.13a4,4,0,0,1-.76-.07,5,5,0,0,1-3.32-2.66c-.75-1.33-1.59-4.12.06-6.15a4.8,4.8,0,0,1,2.75-1.6l.14.65A4.05,4.05,0,0,0,60,198.67c-1.43,1.75-.67,4.22,0,5.4a4.33,4.33,0,0,0,2.86,2.34,4.07,4.07,0,0,0,3.07-.77l.39.53A4.86,4.86,0,0,1,63.47,207.13Z"/><path class="cls-2" d="M60.75,208.05a3.93,3.93,0,0,1-1.1-.15,5.16,5.16,0,0,1,.06-9.87l.18.63A4.26,4.26,0,0,0,57,204a4.48,4.48,0,0,0,2.86,3.24,4.3,4.3,0,0,0,3.48-.73l.39.52A5.18,5.18,0,0,1,60.75,208.05Z"/><path class="cls-2" d="M74.06,231.79l-.11-.66a84,84,0,0,1-1.1-13.48v-1a32.72,32.72,0,0,0-.74-8.46,30.23,30.23,0,0,0-1.16-3.8l-.12-.29.61-.25.12.3A28.56,28.56,0,0,1,72.75,208a33.66,33.66,0,0,1,.76,8.61v1A83.62,83.62,0,0,0,74.6,231l.11.66Z"/><path class="cls-2" d="M68.85,230.59A82.77,82.77,0,0,1,68,219.06l0-1.09a33.5,33.5,0,0,0-.75-8.38A30.37,30.37,0,0,0,66.2,206l.62-.23a29.9,29.9,0,0,1,1.12,3.71A33.46,33.46,0,0,1,68.7,218v1.1a83,83,0,0,0,.81,11.43Z"/><path class="cls-2" d="M76.6,232.28l-.09-.43a81.45,81.45,0,0,1-1.26-14.19v-1a35.86,35.86,0,0,0-.8-9,33.69,33.69,0,0,0-1.26-4.12l.61-.23a32.82,32.82,0,0,1,1.29,4.2,36.35,36.35,0,0,1,.82,9.17v1a82.85,82.85,0,0,0,1.25,14.06l.09.42Z"/><path class="cls-2" d="M79.09,232.67a80.52,80.52,0,0,1-1.45-15v-1a37.68,37.68,0,0,0-.87-9.57,34.62,34.62,0,0,0-1.35-4.43l.61-.24A34.47,34.47,0,0,1,77.42,207a38.21,38.21,0,0,1,.89,9.73v1a79.24,79.24,0,0,0,1.44,14.88Z"/><path class="cls-2" d="M71.55,231.25l-.17-1.09a85.61,85.61,0,0,1-.93-12.51v-1a30.87,30.87,0,0,0-.68-7.88,26.56,26.56,0,0,0-1.19-3.8l.61-.25a28.4,28.4,0,0,1,1.22,3.9,31.35,31.35,0,0,1,.7,8v1A84.24,84.24,0,0,0,72,230.06l.17,1.08Z"/><path class="cls-2" d="M81.6,233A78.47,78.47,0,0,1,80,217.67v-1a39.76,39.76,0,0,0-.94-10.15,35.57,35.57,0,0,0-2-6.21l.6-.27a37.28,37.28,0,0,1,2.1,6.33,40.56,40.56,0,0,1,.94,10.3v1a77.08,77.08,0,0,0,1.55,15.22Z"/><path class="cls-2" d="M84,201.82a4.19,4.19,0,0,1-3.8-2.69l.61-.25a3.26,3.26,0,0,0,6,.58,2.52,2.52,0,0,0,.3-2,2.45,2.45,0,0,0-2.35-1.73,1.81,1.81,0,0,0-1.32.84,1.48,1.48,0,0,0,.11,1.74,1.36,1.36,0,0,0,1.76,0l.41.52a2,2,0,0,1-2.61,0,2.06,2.06,0,0,1-.24-2.54,2.47,2.47,0,0,1,1.82-1.17,3.11,3.11,0,0,1,3,2.2,3.14,3.14,0,0,1-.36,2.45,4.09,4.09,0,0,1-2.47,1.93A3.8,3.8,0,0,1,84,201.82Z"/><path class="cls-2" d="M93.67,201.92a21.5,21.5,0,0,0-2.29-2.1,8.46,8.46,0,0,0-1.57-1,6.15,6.15,0,0,0-2-.54l.06-.66a6.76,6.76,0,0,1,2.27.61,8.17,8.17,0,0,1,1.69,1.11,21.9,21.9,0,0,1,2.37,2.16Z"/><path class="cls-2" d="M91.61,203.07a8,8,0,0,0-3.12-2.3,7.8,7.8,0,0,0-1.72-.46l.09-.65a8.07,8.07,0,0,1,1.87.5,8.59,8.59,0,0,1,3.38,2.49Z"/><path class="cls-2" d="M89.61,204.53a8.42,8.42,0,0,0-1.21-1.18,8.83,8.83,0,0,0-3.47-1.71l.17-.64a9.49,9.49,0,0,1,5,3.1Z"/><path class="cls-2" d="M87.57,206.19a11.69,11.69,0,0,0-1-1.24,13.18,13.18,0,0,0-2.22-2A14.15,14.15,0,0,0,81,201.24l.22-.62a14.56,14.56,0,0,1,3.55,1.83,13.73,13.73,0,0,1,2.33,2.06,13.29,13.29,0,0,1,1,1.31Z"/><path class="cls-2" d="M105,200.59l-.66,0c0-.2.25-4.93,3.8-6.65a6,6,0,0,1,2.75-.57V194a5.39,5.39,0,0,0-2.45.52C105.21,196.06,105,200.41,105,200.59Z"/><path class="cls-2" d="M109.49,201.54l-.65-.1c.75-4.73,3.62-8.24,7.15-8.74a6.91,6.91,0,0,1,4,.72l-.28.59a6.33,6.33,0,0,0-3.61-.66C112.89,193.8,110.18,197.17,109.49,201.54Z"/><path class="cls-2" d="M111.89,203.15l-.64-.14c.17-.79,1.77-7.81,6.88-9.27a5.88,5.88,0,0,1,5,.36,5.09,5.09,0,0,1,2,2.65l-.62.21a4.44,4.44,0,0,0-1.71-2.31,5.34,5.34,0,0,0-4.44-.28C113.49,195.75,112,202.84,111.89,203.15Z"/><path class="cls-2" d="M122.7,205.16a3.88,3.88,0,0,1-3.75-2.64,3.22,3.22,0,0,1,1.38-3.53,3.15,3.15,0,0,1,2.54-.18,2.32,2.32,0,0,1,1.42,1.23,2,2,0,0,1-.49,2.19,1.71,1.71,0,0,1-2.25,0,1.36,1.36,0,0,1-.33-1h.66a.76.76,0,0,0,.16.52,1.1,1.1,0,0,0,1.34-.08,1.31,1.31,0,0,0,.3-1.44,1.65,1.65,0,0,0-1-.86,2.33,2.33,0,0,0-3.06,2.93,3.22,3.22,0,0,0,3.26,2.14,3.68,3.68,0,0,0,2.66-1.59,4.29,4.29,0,0,0,.86-3.49c-.55-2.36-3.5-3-3.62-3.07-2.94-.64-5.41,1.67-6.34,2.69a9.15,9.15,0,0,0-2.23,5.22l-.65-.07a9.72,9.72,0,0,1,2.39-5.59c1-1.11,3.69-3.61,7-2.89.14,0,3.48.8,4.13,3.56a5,5,0,0,1-1,4,4.34,4.34,0,0,1-3.16,1.86Z"/><path class="cls-2" d="M115.16,207l-.64-.16a12.54,12.54,0,0,1,3.14-5.74,12.27,12.27,0,0,1,2.36-1.88l.35.56a11.69,11.69,0,0,0-2.24,1.78A11.89,11.89,0,0,0,115.16,207Z"/><path class="cls-2" d="M120.37,205.67a3.59,3.59,0,0,1-2.22-.75,3.76,3.76,0,0,1-1.37-2.7l.66,0a3,3,0,0,0,4.54,2.41l.31.58A4,4,0,0,1,120.37,205.67Z"/><path class="cls-2" d="M85.51,207.39a12.49,12.49,0,0,0-1.34-1.57,13.1,13.1,0,0,0-2.66-2.07l.34-.57a14.4,14.4,0,0,1,2.79,2.17A13.82,13.82,0,0,1,86,207Z"/><path class="cls-2" d="M118.28,206.55a1.83,1.83,0,0,1-.33,0,3,3,0,0,1-2.48-2.14l.63-.19a2.35,2.35,0,0,0,1.93,1.68,2.46,2.46,0,0,0,2-.77l.49.45A3.2,3.2,0,0,1,118.28,206.55Z"/><path class="cls-2" d="M116.1,207.36h-.25a2.46,2.46,0,0,1-1.14-.46l.39-.53a1.77,1.77,0,0,0,.83.34,2.1,2.1,0,0,0,1.65-.73l.5.42A2.79,2.79,0,0,1,116.1,207.36Z"/><path class="cls-2" d="M54.4,257.2l-.57-.32L69,230.16l.25.06a102.12,102.12,0,0,0,47.34.79l.25,0,13.36,25.93-.59.3-13.13-25.48a102.63,102.63,0,0,1-47.15-.79Z"/><path class="cls-2" d="M94.5,234.06q-4.95,0-9.87-.48a103,103,0,0,1-15.54-2.72l.17-.63a102.39,102.39,0,0,0,47.34.78l.14.64A104.16,104.16,0,0,1,94.5,234.06Z"/><path class="cls-2" d="M94.56,236.25H94.5c-3.37,0-6.77-.16-10.08-.48A105.16,105.16,0,0,1,68,232.84l.17-.64a103.56,103.56,0,0,0,16.34,2.91c3.3.32,6.67.48,10,.48h.06a108.13,108.13,0,0,0,23-2.52l.14.64A108.74,108.74,0,0,1,94.56,236.25Z"/><path d="M90.6,249.81a2.21,2.21,0,0,0,.78-.14,2.29,2.29,0,0,0-.14.78,2.34,2.34,0,1,0,4.67,0,2.29,2.29,0,0,0-.14-.78,2.29,2.29,0,0,0,.78.14,2.34,2.34,0,1,0-2.06-3.42,1.44,1.44,0,0,1,.5,1.09,1.42,1.42,0,0,1-.33.9,1,1,0,0,1-.18.18,1.39,1.39,0,0,1-1.81,0l-.18-.16a1.46,1.46,0,0,1-.32-.91,1.4,1.4,0,0,1,.5-1.08,2.33,2.33,0,1,0-2.07,3.41Z"/><path d="M73.69,248.71a2.29,2.29,0,0,0,.79-.07,2.44,2.44,0,0,0-.21.77,2.33,2.33,0,1,0,4.65.43,2.25,2.25,0,0,0-.06-.78,2.38,2.38,0,0,0,.76.21,2.34,2.34,0,1,0-1.73-3.6,1.43,1.43,0,0,1,.39,1.13,1.45,1.45,0,0,1-.41.87l-.19.16a1.43,1.43,0,0,1-.93.24,1.41,1.41,0,0,1-.88-.42,1.45,1.45,0,0,1-.16-.18,1.43,1.43,0,0,1-.24-.94,1.41,1.41,0,0,1,.6-1,2.33,2.33,0,1,0-2.38,3.21Z"/><path d="M107.05,249.72a2.64,2.64,0,0,0,.77-.2,2,2,0,0,0-.07.78,2.33,2.33,0,1,0,4.65-.38,2.14,2.14,0,0,0-.2-.76,2.52,2.52,0,0,0,.78.07,2.33,2.33,0,1,0-2.33-3.24,1.44,1.44,0,0,1,.59,1,1.47,1.47,0,0,1-.26.93.74.74,0,0,1-.16.19,1.38,1.38,0,0,1-.87.4,1.4,1.4,0,0,1-.94-.26l-.19-.14a1.47,1.47,0,0,1-.4-.89,1.4,1.4,0,0,1,.42-1.11,2.33,2.33,0,1,0-1.79,3.57Z"/><path d="M120.51,244.09a2.33,2.33,0,0,1,2.36.53,1.41,1.41,0,0,0,.47,1.95l.22.1a1.46,1.46,0,0,0,1,0l0,0,1.77,3.44a2.52,2.52,0,0,1-.57.28,2.33,2.33,0,0,1-3.08-2.25,2.24,2.24,0,0,1-.7.38,2.34,2.34,0,0,1-1.48-4.43Z"/><path d="M76.07,245.5a4.5,4.5,0,0,0-3.9-3.06,3.57,3.57,0,0,0-1.87.56A3.4,3.4,0,0,0,69,241.72c-1.48-.75-3.51-.28-5.12,1.18a8,8,0,0,1,4.27-2.53,5.92,5.92,0,0,1,2.88,0A6.85,6.85,0,0,1,74.57,243,9.12,9.12,0,0,1,76.07,245.5Z"/><path class="cls-2" d="M126.62,199.11l-.21-.62a155.84,155.84,0,0,0,47.11-26l.41.51a157.14,157.14,0,0,1-25.52,16.7A156.48,156.48,0,0,1,126.62,199.11Z"/><path class="cls-4" d="M122.31,155.44a74.39,74.39,0,0,0,8.29,1.13l1.65.11v10.44a13.63,13.63,0,0,1-1.65-.62v-8.28a75.63,75.63,0,0,1-7.94-1h0A12.76,12.76,0,0,1,122.31,155.44Z"/><path d="M132.58,167.56l-.42-.13a13.84,13.84,0,0,1-1.69-.63l-.19-.09v-8.19a75.37,75.37,0,0,1-7.68-1h-.25v-.24a16.48,16.48,0,0,1-.36-1.78l-.06-.46.45.09a74.18,74.18,0,0,0,8.26,1.13c.55,0,1.09.08,1.64.11h.31Zm-1.65-1.28c.33.15.66.27,1,.39V157l-1.35-.1a72.46,72.46,0,0,1-7.87-1c.06.35.14.7.22,1a73.19,73.19,0,0,0,7.71,1l.3,0Z"/><path class="cls-4" d="M122.18,153.74l.09,0a71,71,0,0,0,8.33,1.16l1.65.12,1.65.07v12.41a13.22,13.22,0,0,1-1.65-.4V156.68l-1.65-.11a74.39,74.39,0,0,1-8.29-1.13A12,12,0,0,1,122.18,153.74Z"/><path d="M134.22,167.91l-.38-.07a12.64,12.64,0,0,1-1.69-.41l-.23-.07V157l-1.35-.1a76.07,76.07,0,0,1-8.33-1.13l-.23,0,0-.23a13.48,13.48,0,0,1-.13-1.74v-.42l.51.12a72,72,0,0,0,8.28,1.15l1.64.12,1.64.07.31,0Zm-1.64-1c.32.1.65.18,1,.25V155.43l-1.34-.07-1.65-.11a73,73,0,0,1-8.06-1.11c0,.33,0,.67.08,1a75.15,75.15,0,0,0,8,1.08c.55,0,1.09.08,1.64.11h.31Z"/><path class="cls-4" d="M139,167.52V155.11l1.64-.07,1.65-.12a73.21,73.21,0,0,0,8.33-1.17h.1a13.75,13.75,0,0,1-.14,1.7,74.71,74.71,0,0,1-8.29,1.13l-1.65.11v10.44A12.66,12.66,0,0,1,139,167.52Z"/><path d="M138.68,167.91V154.8l.31,0,1.64-.07,1.64-.12a74.31,74.31,0,0,0,8.3-1.16l.49-.09v.4a13.56,13.56,0,0,1-.14,1.74l0,.23-.23,0a73.89,73.89,0,0,1-8.34,1.13L141,157v10.37l-.23.07a11.61,11.61,0,0,1-1.69.41Zm.66-12.48v11.69a9.35,9.35,0,0,0,1-.25V156.36h.32l1.63-.11a75.84,75.84,0,0,0,8-1.08q.06-.53.09-1a74.92,74.92,0,0,1-8.07,1.11l-1.65.11Z"/><path class="cls-4" d="M140.65,167.12V156.68l1.65-.11a74.71,74.71,0,0,0,8.29-1.13,12.76,12.76,0,0,1-.35,1.74h0a78.75,78.75,0,0,1-7.94,1v8.28A13,13,0,0,1,140.65,167.12Z"/><path d="M140.32,167.56v-11.2h.32l1.63-.11a74.83,74.83,0,0,0,8.26-1.13L151,155l-.06.46a14.17,14.17,0,0,1-.36,1.79l-.06.24h-.26a73.08,73.08,0,0,1-7.61,1v8.19l-.2.09a13.7,13.7,0,0,1-1.68.63ZM141,157v9.68c.33-.12.66-.24,1-.39v-8.37l.3,0a76.77,76.77,0,0,0,7.71-1c.08-.34.16-.69.22-1a73,73,0,0,1-7.88,1Z"/><path d="M136.45,177.25l-.12-.05a6.5,6.5,0,0,1-2.61-1.87,6.64,6.64,0,0,1-1.18-2.13,5.92,5.92,0,0,1-5.26-1.09l-.31-.25.3-.26a12.35,12.35,0,0,0,2-2.14,12.76,12.76,0,0,0,1.59-2.84l.61.24a14,14,0,0,1-1.67,3,13.4,13.4,0,0,1-1.8,2,5.36,5.36,0,0,0,2.23.86,5.24,5.24,0,0,0,2.42-.22l.33-.11.09.34a5.78,5.78,0,0,0,3.37,3.84,5.81,5.81,0,0,0,2.22-1.63,5.92,5.92,0,0,0,1.15-2.21l.09-.34.33.11a5.3,5.3,0,0,0,4.65-.64,13.4,13.4,0,0,1-1.8-2,14,14,0,0,1-1.67-3l.61-.24a12.85,12.85,0,0,0,3.59,5l.31.26-.31.25a5.92,5.92,0,0,1-5.26,1.09,6.64,6.64,0,0,1-1.18,2.13,6.5,6.5,0,0,1-2.61,1.87Z"/><path d="M132.7,167.35a14.75,14.75,0,0,1-1.84,3.29c-.18.25-.37.49-.57.73l.14,0a3.48,3.48,0,0,0,.55,0,4,4,0,0,0,1.26-.2l1.66-.56.45,1.69a4.55,4.55,0,0,0,.89,1.7,4.33,4.33,0,0,0,1.21,1,4.33,4.33,0,0,0,1.21-1,4.55,4.55,0,0,0,.89-1.7l.45-1.69,1.66.56a4,4,0,0,0,1.26.2,3.48,3.48,0,0,0,.55,0l.14,0c-.2-.24-.39-.48-.57-.73a14.75,14.75,0,0,1-1.84-3.29,22.77,22.77,0,0,1-7.5,0Z"/><path d="M136.45,148.9a66.2,66.2,0,0,1-12.95-1.28l.13-.64a65.85,65.85,0,0,0,25.64,0l.13.64A66.2,66.2,0,0,1,136.45,148.9Z"/><path d="M136.45,151.1a69.06,69.06,0,0,1-13.38-1.32l-.38-.08.13-.64.38.07a67.92,67.92,0,0,0,26.5,0l.37-.07.13.64-.37.08A69.06,69.06,0,0,1,136.45,151.1Z"/><polygon points="122.17 154.06 122.17 153.41 122.17 153.41 122.17 154.06"/><polygon points="150.73 154.06 150.73 153.41 150.73 153.41 150.73 154.06"/><polygon points="122.31 155.76 122.3 155.11 122.31 155.11 122.31 155.76"/><polygon points="139.34 155.11 138.68 155.11 139.34 155.11 139.34 155.11"/><polygon points="140.98 155.03 140.32 155.03 140.98 155.03 140.98 155.03"/><polygon points="134.22 155.11 133.57 155.11 134.22 155.11 134.22 155.11"/><polygon points="132.58 155.03 131.92 155.03 132.58 155.03 132.58 155.03"/><path class="cls-4" d="M138,158.43a1.51,1.51,0,1,1-1.5-1.5A1.51,1.51,0,0,1,138,158.43Z"/><path class="cls-4" d="M138,153.11a1.51,1.51,0,1,1-1.5-1.5A1.51,1.51,0,0,1,138,153.11Z"/><circle class="cls-4" cx="131.11" cy="152.69" r="1.51"/><path class="cls-4" d="M127.28,152.11a1.51,1.51,0,1,1-1.51-1.51A1.51,1.51,0,0,1,127.28,152.11Z"/><path class="cls-4" d="M140.28,152.69a1.51,1.51,0,1,0,1.51-1.5A1.52,1.52,0,0,0,140.28,152.69Z"/><path class="cls-4" d="M145.62,152.11a1.51,1.51,0,1,0,1.51-1.51A1.51,1.51,0,0,0,145.62,152.11Z"/><path class="cls-4" d="M138,163.75a1.51,1.51,0,1,1-1.5-1.5A1.5,1.5,0,0,1,138,163.75Z"/><path class="cls-4" d="M134.44,145.2a49.09,49.09,0,0,1,2-5.37,44.63,44.63,0,0,1,2,5.37,2.13,2.13,0,0,1,0,1.87,2.62,2.62,0,0,1-3.9,0A2.2,2.2,0,0,1,134.44,145.2Z"/><path class="cls-4" d="M139.26,145.34a16.18,16.18,0,0,0-1.84-5.35,12,12,0,0,1,5,3.93,3,3,0,0,1,.74,2.13,1.85,1.85,0,0,1-1.37,1.39,2.39,2.39,0,0,1-1.85-.46A2.7,2.7,0,0,1,139.26,145.34Z"/><path class="cls-4" d="M144.11,145.32c-.08-.91-.92-2.49-4.46-5.37a20.09,20.09,0,0,1,5.11,2.29,8.34,8.34,0,0,1,1.9,1.78,2.94,2.94,0,0,1,.73,2.14,1.2,1.2,0,0,1-.32.7,1.44,1.44,0,0,1-1,.4,2,2,0,0,1-1.45-.5A2.24,2.24,0,0,1,144.11,145.32Z"/><path class="cls-4" d="M133.64,145.34a16.27,16.27,0,0,1,1.85-5.35,12,12,0,0,0-5,3.93,3,3,0,0,0-.74,2.13,1.84,1.84,0,0,0,1.38,1.39A2.38,2.38,0,0,0,133,147,2.7,2.7,0,0,0,133.64,145.34Z"/><path class="cls-4" d="M128.79,145.32c.08-.91.92-2.49,4.46-5.37a20.09,20.09,0,0,0-5.11,2.29,8.34,8.34,0,0,0-1.9,1.78,3,3,0,0,0-.73,2.14,1.27,1.27,0,0,0,.32.7,1.45,1.45,0,0,0,1,.4,2,2,0,0,0,1.45-.5A2.24,2.24,0,0,0,128.79,145.32Z"/><circle class="cls-4" cx="41.56" cy="139.02" r="4.01" transform="translate(-102.29 158.03) rotate(-80.89)"/><path class="cls-2" d="M41.56,143.36A4.34,4.34,0,1,1,45.9,139,4.35,4.35,0,0,1,41.56,143.36Zm0-8A3.68,3.68,0,1,0,45.24,139,3.68,3.68,0,0,0,41.56,135.34Z"/><path class="cls-2" d="M41.33,136.68a2.3,2.3,0,1,1,1.36,4.4,2.61,2.61,0,0,0-1.36-4.4Z"/><path class="cls-2" d="M38.83,159.78c-1.88,0-4-.26-4.41-1.42-.28-.88.56-1.79.92-2.18,1.67-1.79,4.26-1.49,5-1.35a2.72,2.72,0,0,1,.81-.59A3,3,0,0,1,43,154a7.76,7.76,0,0,1,2.69-5.79l.44.48a7.6,7.6,0,0,0-2.37,4.2,7.72,7.72,0,0,0-.09,1.52.33.33,0,0,1-.13.28.35.35,0,0,1-.3,0,2.39,2.39,0,0,0-1.76.07,2.26,2.26,0,0,0-.73.57.32.32,0,0,1-.33.11c-.3-.07-3-.62-4.58,1.12-.26.28-.95,1-.78,1.53.35,1.08,4.13,1.07,6.43.81a13.56,13.56,0,0,0,4.69-1.35,7.92,7.92,0,0,0,2.47-1.76c1.54-1.75,1.58-4,1.62-6.64.05-3,.08-4.53-1-5.61-1.66-1.73-4.63-1.23-5.21-1.11l-.13-.65c.9-.18,4-.63,5.82,1.3C51,144.43,51,146,50.92,149.23c0,2.75-.08,5.13-1.79,7.06a8.45,8.45,0,0,1-2.66,1.91,13.82,13.82,0,0,1-4.92,1.42A24.51,24.51,0,0,1,38.83,159.78Z"/><path class="cls-2" d="M35,157.31a2.27,2.27,0,0,1-1.4-.44,2.6,2.6,0,0,1-.85-2.39c.21-1.19,1.56-2.21,3.7-2.78,1.89-.52,4.23-.6,4.86.15a2.4,2.4,0,0,1,.47,2.24,3,3,0,0,1-.18.58l-.61-.26a2.47,2.47,0,0,0,.15-.46,2.08,2.08,0,0,0-.06-1.22,1.83,1.83,0,0,0-.27-.46c-.3-.35-2.08-.51-4.19.06-1.86.5-3.06,1.35-3.22,2.27a2,2,0,0,0,.61,1.75,1.53,1.53,0,0,0,1.05.3l0,.66Z"/><path class="cls-2" d="M33.28,154.17a2.47,2.47,0,0,1-.9-.57,2.54,2.54,0,0,1-.65-1.84c.1-1.34,2.28-2.39,4.3-2.93s4.51-.77,5.24.32a2.6,2.6,0,0,1,.41,1.2,2.9,2.9,0,0,1-.44,1.77l-.56-.34a2.28,2.28,0,0,0,.35-1.37,2.06,2.06,0,0,0-.3-.89c-.42-.62-2.37-.64-4.53-.06s-3.76,1.57-3.81,2.35a1.88,1.88,0,0,0,.47,1.33,1.57,1.57,0,0,0,.64.41Z"/><path class="cls-2" d="M32.59,150.83a2.65,2.65,0,0,1-.62-1.28,3.06,3.06,0,0,1,.18-1.52c.51-1.26,3.09-2.15,5.29-2.29,1.83-.11,3.15.31,3.61,1.15a2.43,2.43,0,0,1-.17,2.24l-.6-.28a1.9,1.9,0,0,0,.2-1.65c-.33-.59-1.46-.89-3-.8-2.16.13-4.37,1-4.72,1.88a2.48,2.48,0,0,0-.14,1.16,2,2,0,0,0,.47,1Z"/><path class="cls-2" d="M32.72,147.65a3.12,3.12,0,0,1-.33-2.67,3.37,3.37,0,0,1,2.39-1.65c1.67-.55,4.64-.88,5.48.59a2,2,0,0,1,.17,1.55,1.94,1.94,0,0,1-.8,1l-.37-.55a1.26,1.26,0,0,0,.54-.67,1.37,1.37,0,0,0-.11-1c-.53-.92-2.86-.89-4.7-.29-.9.3-1.68.55-2,1.29a2.47,2.47,0,0,0,.3,2.07Z"/><rect class="cls-2" x="44.13" y="141.78" width="0.66" height="8.41"/><rect class="cls-2" x="38.49" y="141.94" width="0.66" height="1.38"/><path class="cls-2" d="M39,159.35a1.22,1.22,0,0,0-.95-1.7,4.54,4.54,0,0,0-2.55.1,4.69,4.69,0,0,1,2.63-.42,1.71,1.71,0,0,1,1.5,2.19l-.63-.17Z"/><path class="cls-2" d="M38.53,155.23a1.62,1.62,0,0,1,2.12-2.29c-1.26-.4-2.41.87-1.56,1.94l-.56.35Z"/><path class="cls-2" d="M38.31,151.8c-.68-1.68,1.1-2.47,2.34-1.58-1-.5-2.53.09-1.75,1.29l-.59.29Z"/><path class="cls-2" d="M37.49,148.78A1.52,1.52,0,0,1,40,147.42a1.63,1.63,0,0,0-1.48.08,1,1,0,0,0-.35,1.16l-.65.12Z"/><path class="cls-2" d="M36.9,146.22c-.59-1.57,1.09-2.43,2.37-1.84a1.93,1.93,0,0,0-1.6.31.92.92,0,0,0-.16,1.27l-.61.26Z"/><path class="cls-4" d="M35.91,160.28a.62.62,0,0,0,.48.49l.55.1c4.16.65,6-1.31,10.15-1,2.31.16,3.18.86,3.57,1.26a3.49,3.49,0,0,1,1,2.45,2.53,2.53,0,0,1-.74,1.82,2.36,2.36,0,0,1-2.52.35A2.42,2.42,0,0,1,47.06,164a.61.61,0,0,0-.48-.49c-.16,0-.35-.07-.55-.1-4.16-.65-6,1.31-10.15,1-2.31-.15-3.18-.86-3.57-1.26a3.44,3.44,0,0,1-1-2.45,2.49,2.49,0,0,1,.74-1.82,2.36,2.36,0,0,1,2.52-.34A2.42,2.42,0,0,1,35.91,160.28Z"/><path class="cls-2" d="M49.42,166.25a2.8,2.8,0,0,1-1.13-.24,2.75,2.75,0,0,1-1.55-2,.29.29,0,0,0-.23-.23l-.53-.1a12,12,0,0,0-5.22.44,14.39,14.39,0,0,1-4.9.6,5.62,5.62,0,0,1-3.79-1.36A3.82,3.82,0,0,1,31,160.69a2.84,2.84,0,0,1,.85-2.05,2.67,2.67,0,0,1,2.87-.4,2.74,2.74,0,0,1,1.55,2h0a.31.31,0,0,0,.23.24l.53.09a11.75,11.75,0,0,0,5.22-.44,14.4,14.4,0,0,1,4.9-.59,5.62,5.62,0,0,1,3.79,1.35,3.87,3.87,0,0,1,1.11,2.7,2.85,2.85,0,0,1-.85,2.05A2.61,2.61,0,0,1,49.42,166.25Zm-5-3.33a11.58,11.58,0,0,1,1.7.13c.21,0,.4.07.57.11a.93.93,0,0,1,.73.75,2.1,2.1,0,0,0,1.18,1.5,2,2,0,0,0,2.16-.29,2.17,2.17,0,0,0,.63-1.59,3.11,3.11,0,0,0-.93-2.21c-.24-.24-1-1-3.35-1.16a13.87,13.87,0,0,0-4.7.58,12.58,12.58,0,0,1-5.48.46l-.57-.11a.94.94,0,0,1-.73-.75,2.06,2.06,0,0,0-1.18-1.5,2,2,0,0,0-2.16.29,2.15,2.15,0,0,0-.63,1.58,3.13,3.13,0,0,0,.92,2.21c.24.25,1,1,3.36,1.16a14.14,14.14,0,0,0,4.7-.57A14.76,14.76,0,0,1,44.38,162.92Z"/><path class="cls-2" d="M41.48,236.82h-.66c0-4.58.19-6.91.37-9.16s.36-4.56.36-9.11a50.35,50.35,0,0,0-.72-9.09,57.43,57.43,0,0,1,0-18.38,50.54,50.54,0,0,0,.72-9.09,50.35,50.35,0,0,0-.72-9.09,50.21,50.21,0,0,1-.74-9.19h.66a49.39,49.39,0,0,0,.73,9.09,50.34,50.34,0,0,1,.73,9.19,50.43,50.43,0,0,1-.73,9.19,56.9,56.9,0,0,0,0,18.17,50.47,50.47,0,0,1,.73,9.2c0,4.58-.18,6.91-.36,9.16S41.48,232.27,41.48,236.82Z"/><rect class="cls-2" x="37.77" y="164.52" width="0.66" height="6.03" transform="translate(-123.95 110.45) rotate(-57.78)"/><rect class="cls-2" x="38.08" y="168.4" width="0.66" height="6.76" transform="matrix(0.53, -0.85, 0.85, 0.53, -127.4, 112.69)"/><rect class="cls-2" x="38.33" y="172.32" width="0.66" height="7.34" transform="translate(-130.84 114.87) rotate(-57.78)"/><rect class="cls-2" x="38.39" y="176.34" width="0.66" height="7.48" transform="translate(-134.28 116.83) rotate(-57.78)"/><rect class="cls-2" x="38.33" y="180.42" width="0.66" height="7.34" transform="translate(-137.7 118.65) rotate(-57.78)"/><rect class="cls-2" x="38.12" y="184.59" width="0.66" height="6.86" transform="translate(-141.11 120.3) rotate(-57.78)"/><rect class="cls-2" x="37.84" y="188.79" width="0.66" height="6.2" transform="matrix(0.53, -0.85, 0.85, 0.53, -144.53, 121.89)"/><rect class="cls-2" x="37.68" y="192.93" width="0.66" height="5.82" transform="translate(-147.94 123.59) rotate(-57.78)"/><rect class="cls-2" x="37.66" y="197" width="0.66" height="5.76" transform="translate(-151.37 125.46) rotate(-57.78)"/><rect class="cls-2" x="37.77" y="200.99" width="0.66" height="6.03" transform="translate(-154.8 127.47) rotate(-57.78)"/><rect class="cls-2" x="38.07" y="204.88" width="0.66" height="6.74" transform="translate(-158.25 129.7) rotate(-57.78)"/><rect class="cls-2" x="38.33" y="208.79" width="0.66" height="7.34" transform="translate(-161.7 131.9) rotate(-57.78)"/><rect class="cls-2" x="38.39" y="212.81" width="0.66" height="7.48" transform="translate(-165.14 133.88) rotate(-57.79)"/><rect class="cls-2" x="38.36" y="216.88" width="0.66" height="7.42" transform="translate(-168.56 135.72) rotate(-57.78)"/><rect class="cls-2" x="38.25" y="220.99" width="0.66" height="7.16" transform="translate(-171.98 137.48) rotate(-57.78)"/><rect class="cls-2" x="38.11" y="225.12" width="0.66" height="6.82" transform="translate(-175.4 139.2) rotate(-57.78)"/><rect class="cls-2" x="38.03" y="229.22" width="0.66" height="6.64" transform="translate(-178.82 141.01) rotate(-57.78)"/><path class="cls-2" d="M62.54,197.16l-.54-.37a95.33,95.33,0,0,0,10.83-20.34A96,96,0,0,0,79,135.77l.65,0a96.39,96.39,0,0,1-6.18,41A95.69,95.69,0,0,1,62.54,197.16Z"/><rect class="cls-2" x="51.9" y="190.29" width="0.66" height="12.53" transform="translate(-144.89 146.49) rotate(-60.87)"/><rect class="cls-2" x="65.97" y="190.72" width="0.66" height="4.45"/><path class="cls-1" d="M66,177.74a4.11,4.11,0,1,1,4.11-4.11A4.12,4.12,0,0,1,66,177.74Zm0-7.57a3.46,3.46,0,1,0,3.45,3.46A3.45,3.45,0,0,0,66,170.17Z"/><path class="cls-1" d="M68.33,173.63A2.36,2.36,0,1,1,66,171.26,2.36,2.36,0,0,1,68.33,173.63Z"/><rect x="115.29" y="147.56" width="0.66" height="21.52"/><polygon class="cls-2" points="138.05 183.81 139.88 183.81 140.65 182.05 141.42 183.81 143.25 183.81 140.65 190.71 138.05 183.81"/><polygon class="cls-2" points="147.64 176.67 149.47 176.67 150.24 174.92 151.01 176.67 152.84 176.67 150.24 183.57 147.64 176.67"/><polygon class="cls-2" points="128.7 177.27 130.53 177.27 131.3 175.51 132.07 177.27 133.9 177.27 131.3 184.17 128.7 177.27"/><path class="cls-2" d="M110.6,228.27A8,8,0,0,1,104,224.6a.33.33,0,0,1,.09-.46.33.33,0,0,1,.46.1,7.24,7.24,0,0,0,6.49,3.35A7.34,7.34,0,0,0,116,225a.33.33,0,0,1,.46,0,.34.34,0,0,1,.05.47,8,8,0,0,1-5.41,2.85Z"/><path class="cls-2" d="M83.88,226.8c4.44,1.86,9.42,3.23,14.14,1.93.33-.08.62-.25,1-.36a.12.12,0,0,1,.13.07,4.67,4.67,0,0,1-3.57,2.68c-2.9.45-5.72-.87-8.24-2A32.24,32.24,0,0,1,83.79,227c-.09-.06,0-.22.09-.17Z"/><path class="cls-2" d="M91.76,228c-4.45,0-8.25-3.66-8.44-3.85a.32.32,0,0,1,0-.46.33.33,0,0,1,.46,0c0,.05,5.22,5,10.28,3.28a7.36,7.36,0,0,0,2.72-1.7.33.33,0,0,1,.47,0,.34.34,0,0,1,0,.47,8.07,8.07,0,0,1-3,1.86A7.67,7.67,0,0,1,91.76,228Z"/><path class="cls-2" d="M110.52,226.57A9,9,0,0,1,104,223.4l1-.88c2.12,2.39,5.27,3.34,7.63,2.31a5.68,5.68,0,0,0,2.72-2.68l1.17.61a7,7,0,0,1-3.36,3.28A6.52,6.52,0,0,1,110.52,226.57Z"/><path class="cls-2" d="M104.54,223a.3.3,0,0,1-.26-.13.32.32,0,0,1,0-.46,9.73,9.73,0,0,1,6.27-2.06,9.87,9.87,0,0,1,5.72,2,.33.33,0,0,1,.06.46.32.32,0,0,1-.46.06,9.29,9.29,0,0,0-5.34-1.91,9,9,0,0,0-5.84,1.92A.31.31,0,0,1,104.54,223Z"/><path class="cls-2" d="M112.21,224a1.64,1.64,0,1,1-1.64-1.64A1.65,1.65,0,0,1,112.21,224Z"/><path class="cls-2" d="M107.45,225.42l-.19-.69a3.61,3.61,0,0,1-.06-.63,3.37,3.37,0,0,1,6.74,0,3.22,3.22,0,0,1-.09.76l-.08.35-.64-.14.08-.36a2.48,2.48,0,0,0,.07-.61,2.71,2.71,0,0,0-5.42,0,2.59,2.59,0,0,0,0,.48l.18.67Z"/><path class="cls-2" d="M93.64,223.75A1.64,1.64,0,1,1,92,222.11,1.65,1.65,0,0,1,93.64,223.75Z"/><path class="cls-2" d="M89,225.1l-.18-.66a3.23,3.23,0,1,1,6.4-.6,3.53,3.53,0,0,1-.08.72l-.08.34-.64-.14.08-.34a2.86,2.86,0,0,0,.06-.58,2.57,2.57,0,0,0-5.14,0,2.38,2.38,0,0,0,0,.46l.17.63Z"/><path class="cls-2" d="M104.1,222.84a13,13,0,0,1,4.22-4.48.21.21,0,0,1,.29.06.22.22,0,0,1,0,.28,12,12,0,0,0-3.28,4.71.66.66,0,1,1-1.19-.57Z"/><path class="cls-2" d="M96.19,223.12a3.52,3.52,0,0,0-2.61-3.71.21.21,0,0,1,.09-.41,4.4,4.4,0,0,1,3.84,4.15.66.66,0,1,1-1.32,0Z"/><path class="cls-2" d="M91.91,226.54a10.17,10.17,0,0,1-7-3.18l.93-.93c2.51,2.5,5.8,3.44,8.19,2.34a5.38,5.38,0,0,0,2.23-2l1.1.72A6.66,6.66,0,0,1,94.63,226,6.42,6.42,0,0,1,91.91,226.54Z"/><path class="cls-2" d="M85.83,224a.3.3,0,0,1-.23-.1,4.49,4.49,0,0,0-.44-.36,5.41,5.41,0,0,1-.5-.44l-.53-.55h1.56a8.07,8.07,0,0,1,5.7-2.29,7.94,7.94,0,0,1,5.71,2.7.33.33,0,1,1-.5.43,7.31,7.31,0,0,0-5.22-2.48H91.2a7.31,7.31,0,0,0-5.14,2.19l-.09.11h-.16a2,2,0,0,1,.26.24.32.32,0,0,1,0,.46A.32.32,0,0,1,85.83,224Z"/><path class="cls-2" d="M97.52,222.87l.94,1.84-1.87-.91c-1.06-.63.28-2,.93-.93Z"/><path class="cls-2" d="M103.59,214.5c-2,1.67-3.73-1.5-5.57-.95a1.81,1.81,0,0,0-1.34,1.7A2.29,2.29,0,0,0,98.3,217a.21.21,0,0,1-.13.4c-2.52-.63-3-3.57-.45-4.68,1.49-.68,3,.6,4.26,1a.72.72,0,0,0,.77-.23.66.66,0,1,1,.84,1Z"/><path class="cls-2" d="M98.52,211a6.1,6.1,0,0,1-4.14-.77c-1.14-.63-2.07-1.34-2.81-1-1.35.5-2.18,2.58-.73,3.52a3.37,3.37,0,0,0,1.53.6.32.32,0,0,1-.06.63c-3.7-.15-4.39-4.2-1.26-5.95,1.34-.69,2.9.23,4,.75a4.2,4.2,0,0,0,3,.31,1,1,0,1,1,.44,1.93Z"/><path class="cls-2" d="M105.56,208.84c1.48.36,2.6-.82,4.16-1.1a3.24,3.24,0,0,1,3.16,1.93c.94,1.86-.9,3.8-2.66,3.9a.32.32,0,0,1-.1-.63,2.48,2.48,0,0,0,1.93-1.65c.33-1.06-1-2.34-2.1-2.1-.83.27-1.71,1.12-2.71,1.38s-2.81.65-2.83-.8a1,1,0,0,1,1.15-.93Z"/><path class="cls-2" d="M103.68,204.06a.31.31,0,0,1-.13,0,5.2,5.2,0,0,0-2-.44,5,5,0,0,0-2.06.4.33.33,0,1,1-.25-.61,5.57,5.57,0,0,1,2.32-.44,5.8,5.8,0,0,1,2.28.49.33.33,0,0,1-.14.63Z"/><path class="cls-2" d="M95.45,204.73l.47,2.12a.2.2,0,0,0,.3.13,4.77,4.77,0,0,1,1.19-.4c.85-.29,1.31.82,2.47.75.81-.05.85-.6,1.66-.61s1,.76,2,.78c1.08,0,1.71-1.08,2.39-.74a3.88,3.88,0,0,1,.77.28.2.2,0,0,0,.31-.15c.06-.59.13-1.18.19-1.77a.2.2,0,0,0-.31-.19,3.65,3.65,0,0,1-1.47.57c-1.2.17-1.65-.45-3-.61-1.68-.19-2.05.62-3.7.58a5.8,5.8,0,0,1-2.92-1A.2.2,0,0,0,95.45,204.73Z"/><path class="cls-2" d="M117,231.22l-.65-.07a17.48,17.48,0,0,1,1.56-5.67c.17-.35.34-.68.51-1a.31.31,0,0,1,.23-.16.35.35,0,0,1,.28.07,2,2,0,0,0,1.73.51,1.53,1.53,0,0,0,.9-.85,2.3,2.3,0,0,0,.09-1.78,2.49,2.49,0,0,0-2.49-1.28,3.21,3.21,0,0,0-2.68,2.34l-.63-.19a3.87,3.87,0,0,1,3.26-2.8,3.1,3.1,0,0,1,3.15,1.68,3,3,0,0,1-.1,2.32,2.22,2.22,0,0,1-1.3,1.19,2.46,2.46,0,0,1-2-.4c-.11.21-.21.42-.31.63A17,17,0,0,0,117,231.22Z"/><path class="cls-2" d="M116.34,220.49l-.65-.11a11.45,11.45,0,0,1,2.2-5,11.2,11.2,0,0,1,1.74-1.77.32.32,0,0,1,.3-.06.34.34,0,0,1,.22.22,2.13,2.13,0,0,0,2.34,1.56,2.26,2.26,0,0,0,1.5-2.57,3,3,0,0,0-2.34-2.09c-1.91-.4-4.23,1.25-5.62,4l-.59-.3c1.53-3,4.14-4.82,6.34-4.35a3.56,3.56,0,0,1,2.86,2.63,2.89,2.89,0,0,1-2,3.32,2.78,2.78,0,0,1-2.91-1.56,9.86,9.86,0,0,0-1.29,1.37A10.78,10.78,0,0,0,116.34,220.49Z"/><path class="cls-1" d="M101.35,156.44a1.69,1.69,0,0,0,1.89-1.12.16.16,0,0,0-.17-.21,1,1,0,0,1-1.13-.51,1.47,1.47,0,0,1,0-.17,1.25,1.25,0,0,1,.23-.4,1.15,1.15,0,0,1,.66-.33,1.68,1.68,0,0,1,.83,0,5.07,5.07,0,0,1,1.19.8c1.44,1.24,1.24,3.91.93,7.94,0,.32,0,.66-.07,1a3.06,3.06,0,0,0-2.59-1,2.53,2.53,0,0,0-2.65,2.75,2.22,2.22,0,0,0,2.63,2,.17.17,0,0,0,.11-.24c-.46-.92-.37-1.6-.19-1.78a2.48,2.48,0,0,1,.49-.47c.8-.32,1.53.23,2.06,1l0,.43c-.43,8.08-.69,13,2.28,16.76,1,1.27,3.7,4.19,7.32,3.84,2.92-.28,6-2.59,6-5.57,0-2.15-1.71-4.66-4-4.81h0a4.12,4.12,0,0,0-2.74.52c-2.18,1.33-1.21,4.92,1.1,5a.16.16,0,0,0,.16-.21,3.11,3.11,0,0,1,.36-2.78,1.15,1.15,0,0,1,.69-.5,1.52,1.52,0,0,1,.42-.06,3,3,0,0,1,2,2.81c0,1.8-2.3,3.41-4.27,3.6-2.72.28-5-2.29-5.58-3.08-1.41-1.81-2-3.9-2.08-7A3.62,3.62,0,0,1,109,171.3l.29-.16a1.88,1.88,0,0,1,2.16.56c.77.71.23,1.9-.39,2.82a.15.15,0,0,0,.14.15,2.77,2.77,0,0,0,2.31-1.21c1.45-2-.18-4.69-2.41-4.91a4.46,4.46,0,0,0-3.72,1.49c0-1.19.11-2.49.18-3.93.07-1.26.16-2.42.24-3.49.35-4.63.59-7.69-1.61-9.59a5.74,5.74,0,0,0-3.38-1.53h-.09a3.86,3.86,0,0,0-1.81.31C99,152.69,99.1,156.11,101.35,156.44Z"/><path class="cls-1" d="M118.56,186.81a4.94,4.94,0,0,1,3.78-1c2.12.32,4.3,2.24,3.13,4.51a2.44,2.44,0,0,1-1.06,1.12.17.17,0,0,1-.24-.09l-.54-1.2a8.85,8.85,0,0,1-.69-1.43,1.43,1.43,0,0,0-.36-.7,4.44,4.44,0,0,0-3.9-.94.14.14,0,0,1-.12-.24Z"/><path class="cls-1" d="M103.51,147.15a2.44,2.44,0,1,1-2.44-2.45A2.44,2.44,0,0,1,103.51,147.15Z"/><path class="cls-1" d="M111.9,165.61a1.57,1.57,0,1,1-1.57-1.58A1.57,1.57,0,0,1,111.9,165.61Z"/><path class="cls-1" d="M109.87,224.3a.64.64,0,0,0-.64-.67.63.63,0,1,0-.1,1.25A.68.68,0,0,0,109.87,224.3Z"/><path class="cls-1" d="M91.05,224.22a.66.66,0,0,0-.64-.67.68.68,0,0,0-.74.59.66.66,0,0,0,.64.67A.68.68,0,0,0,91.05,224.22Z"/><path d="M111,193.64a116.52,116.52,0,0,1-15.66-48c-.3-9.81-3-28.44-17.4-43.3a59.15,59.15,0,0,0-16.3-11.79l.29-.59A59.74,59.74,0,0,1,78.4,101.89C93,116.91,95.69,135.73,96,145.61a115.79,115.79,0,0,0,15.57,47.7Z"/><path class="cls-2" d="M107.14,200.83l-.65-.09c.58-4.18,2.9-7.36,5.77-7.93A5.51,5.51,0,0,1,115,193l-.2.63a4.81,4.81,0,0,0-2.39-.17C109.79,194,107.68,196.93,107.14,200.83Z"/><path class="cls-1" d="M117.4,132.34h0a3.1,3.1,0,0,0-4.38,0h0a3.1,3.1,0,0,0,0,4.38h0a3.1,3.1,0,0,0,4.38,0h0A3.1,3.1,0,0,0,117.4,132.34Z"/><path class="cls-2" d="M115.21,138a3.42,3.42,0,1,1,2.42-5.84h0a3.42,3.42,0,0,1-2.42,5.84Zm0-6.18a2.74,2.74,0,0,0-2,.81,2.77,2.77,0,1,0,3.92,0A2.74,2.74,0,0,0,115.21,131.77Z"/><path class="cls-1" d="M108,137.33h0a3.08,3.08,0,0,0,0,4.37h0a3.1,3.1,0,0,0,4.38,0h0a3.1,3.1,0,0,0,0-4.37h0A3.1,3.1,0,0,0,108,137.33Z"/><path class="cls-2" d="M110.23,142.93a3.38,3.38,0,0,1-2.42-1,3.43,3.43,0,1,1,2.42,1Zm0-6.18a2.77,2.77,0,1,0,2,.81A2.76,2.76,0,0,0,110.23,136.75Z"/><path class="cls-1" d="M113,146.68h0a3.1,3.1,0,0,0,4.38,0h0a3.08,3.08,0,0,0,0-4.37h0a3.1,3.1,0,0,0-4.38,0h0A3.08,3.08,0,0,0,113,146.68Z"/><path class="cls-2" d="M115.21,147.92a3.44,3.44,0,0,1-2.42-1h0a3.43,3.43,0,1,1,2.42,1Zm-2-1.47a2.77,2.77,0,1,0,0-3.91,2.78,2.78,0,0,0,0,3.91Z"/><path class="cls-1" d="M122.38,141.7h0a3.08,3.08,0,0,0,0-4.37h0a3.1,3.1,0,0,0-4.38,0h0a3.1,3.1,0,0,0,0,4.37h0A3.1,3.1,0,0,0,122.38,141.7Z"/><path class="cls-2" d="M120.19,142.93a3.42,3.42,0,1,1,2.42-1h0A3.38,3.38,0,0,1,120.19,142.93Zm0-6.18a2.77,2.77,0,1,0,2,.81A2.74,2.74,0,0,0,120.19,136.75Z"/><rect class="cls-2" x="112.01" y="136.31" width="6.4" height="6.4" transform="translate(-64.91 122.33) rotate(-45)"/><path class="cls-1" d="M116.85,137.87h0a2.31,2.31,0,0,0-3.28,0h0a2.32,2.32,0,0,0,0,3.29h0a2.33,2.33,0,0,0,3.28,0h0A2.32,2.32,0,0,0,116.85,137.87Z"/><path d="M66.34,144.42a14.63,14.63,0,0,1-14.61-14.61c0-.1,0-.2,0-.3v-.25l.35-.07A71.7,71.7,0,0,1,60.47,128l1.65-.12,1.61-.07H68.9l1.66.07,1.66.12a75.56,75.56,0,0,1,8.37,1.17l.34.06,0,.26v.3A14.63,14.63,0,0,1,66.34,144.42Zm-14-14.62h0a14,14,0,0,0,27.91,0h0a71.77,71.77,0,0,0-8.14-1.13c-.54-.05-1.09-.09-1.64-.12l-1.59-.07H63.75l-1.59.07-1.64.12A70,70,0,0,0,52.39,129.8Z"/><path class="cls-1" d="M85.4,150.92h0a3.08,3.08,0,0,0,4.37,0h0a3.08,3.08,0,0,0,0-4.37h0a3.08,3.08,0,0,0-4.37,0h0A3.08,3.08,0,0,0,85.4,150.92Z"/><path class="cls-2" d="M87.58,152.16a3.42,3.42,0,1,1,2.43-1A3.41,3.41,0,0,1,87.58,152.16Zm0-6.19a2.76,2.76,0,0,0-2,4.72h0a2.76,2.76,0,1,0,2-4.72Z"/><path class="cls-1" d="M94.75,145.94h0a3.08,3.08,0,0,0,0-4.37h0a3.08,3.08,0,0,0-4.37,0h0a3.08,3.08,0,0,0,0,4.37h0A3.08,3.08,0,0,0,94.75,145.94Z"/><path class="cls-2" d="M92.57,147.18a3.43,3.43,0,1,1,2.42-1h0A3.46,3.46,0,0,1,92.57,147.18Zm0-6.19a2.77,2.77,0,1,0,2,.81A2.76,2.76,0,0,0,92.57,141Z"/><path class="cls-1" d="M89.77,136.58h0a3.1,3.1,0,0,0-4.37,0h0a3.1,3.1,0,0,0,0,4.38h0a3.08,3.08,0,0,0,4.37,0h0A3.1,3.1,0,0,0,89.77,136.58Z"/><path class="cls-2" d="M87.58,142.19A3.42,3.42,0,1,1,90,136.35h0a3.42,3.42,0,0,1-2.43,5.84Zm0-6.18a2.77,2.77,0,0,0-2.77,2.76,2.76,2.76,0,1,0,4.72-2h0A2.71,2.71,0,0,0,87.59,136Z"/><path class="cls-1" d="M80.41,141.57h0a3.1,3.1,0,0,0,0,4.37h0a3.1,3.1,0,0,0,4.38,0h0a3.08,3.08,0,0,0,0-4.37h0A3.1,3.1,0,0,0,80.41,141.57Z"/><path class="cls-2" d="M82.6,147.18a3.43,3.43,0,0,1-2.42-5.85h0a3.43,3.43,0,1,1,2.42,5.85Zm0-6.19a2.74,2.74,0,0,0-1.95.81h0A2.76,2.76,0,1,0,82.6,141Z"/><rect class="cls-2" x="84.38" y="140.55" width="6.4" height="6.4" transform="translate(-76 104.04) rotate(-45)"/><path class="cls-1" d="M85.94,145.4h0a2.32,2.32,0,0,0,3.29,0h0a2.32,2.32,0,0,0,0-3.29h0a2.32,2.32,0,0,0-3.29,0h0A2.32,2.32,0,0,0,85.94,145.4Z"/><path class="cls-2" d="M157,141.59a5.43,5.43,0,0,1-4-1.48c-1.22-1.27-1.2-2.87-1.15-6.07,0-2.76.09-5.13,1.79-7.07a8.64,8.64,0,0,1,2.66-1.9,14.12,14.12,0,0,1,4.92-1.43c1.09-.12,6.52-.64,7.13,1.27.29.88-.56,1.79-.92,2.18-1.67,1.79-4.26,1.49-5,1.35a3.17,3.17,0,0,1-.82.59,3,3,0,0,1-1.81.22,7.1,7.1,0,0,1-.11,1.22,8.22,8.22,0,0,1-2.57,4.57l-.45-.48a7.58,7.58,0,0,0,2.37-4.2,6.44,6.44,0,0,0,.09-1.52.34.34,0,0,1,.13-.28.37.37,0,0,1,.31-.05,2.35,2.35,0,0,0,1.76-.08,2.3,2.3,0,0,0,.73-.56.31.31,0,0,1,.32-.11c.3.06,3,.61,4.59-1.12.26-.28.94-1,.78-1.53-.35-1.08-4.13-1.07-6.43-.81a13.06,13.06,0,0,0-4.69,1.35,8,8,0,0,0-2.48,1.76c-1.54,1.75-1.58,4-1.62,6.63-.05,3-.07,4.54,1,5.62,1.66,1.73,4.63,1.23,5.21,1.11l.14.64A9.33,9.33,0,0,1,157,141.59Z"/><circle class="cls-4" cx="161.23" cy="144.25" r="4.01"/><path class="cls-2" d="M161.23,148.59a4.34,4.34,0,1,1,4.34-4.34A4.34,4.34,0,0,1,161.23,148.59Zm0-8a3.68,3.68,0,1,0,3.68,3.68A3.68,3.68,0,0,0,161.23,140.57Z"/><path class="cls-2" d="M161.47,146.59a2.31,2.31,0,1,1-1.37-4.4,2.62,2.62,0,0,0,1.37,4.4Z"/><rect class="cls-2" x="163.64" y="139.95" width="0.66" height="1.38"/><path class="cls-2" d="M163.49,132a2.83,2.83,0,0,1-2-.55,2.37,2.37,0,0,1-.38-.64,2.74,2.74,0,0,1-.09-1.6,5.58,5.58,0,0,1,.18-.58l.61.26a2.59,2.59,0,0,0-.14.45,2,2,0,0,0,.05,1.23,2.33,2.33,0,0,0,.27.45c.3.36,2.09.52,4.2-.05,1.85-.5,3-1.35,3.21-2.27a1.93,1.93,0,0,0-.6-1.75,1.67,1.67,0,0,0-1-.31l0-.66a2.29,2.29,0,0,1,1.47.44,2.56,2.56,0,0,1,.85,2.39c-.21,1.2-1.55,2.21-3.69,2.79A11.3,11.3,0,0,1,163.49,132Z"/><path class="cls-2" d="M163.77,134.89a2.67,2.67,0,0,1-2.25-.77,2.6,2.6,0,0,1-.41-1.2,2.88,2.88,0,0,1,.44-1.77l.57.34a2.26,2.26,0,0,0-.35,1.37,1.88,1.88,0,0,0,.3.89c.41.62,2.36.64,4.53.06s3.75-1.57,3.81-2.35a1.92,1.92,0,0,0-.47-1.33,1.72,1.72,0,0,0-.64-.41l.22-.62a2.35,2.35,0,0,1,.89.57,2.61,2.61,0,0,1,.66,1.84c-.1,1.33-2.29,2.39-4.3,2.93A12,12,0,0,1,163.77,134.89Z"/><path class="cls-2" d="M164.78,137.54c-1.53,0-2.63-.41-3-1.16a2.47,2.47,0,0,1,.18-2.24l.6.28a1.84,1.84,0,0,0-.2,1.64c.33.6,1.45.9,3,.81,2.16-.14,4.36-1,4.71-1.88a2.41,2.41,0,0,0,.15-1.16,2.08,2.08,0,0,0-.48-1l.5-.43a2.57,2.57,0,0,1,.62,1.27,3,3,0,0,1-.18,1.53c-.51,1.26-3.08,2.15-5.28,2.28A5.72,5.72,0,0,1,164.78,137.54Z"/><path class="cls-2" d="M165.18,140.41a2.91,2.91,0,0,1-2.64-1.06,2,2,0,0,1-.17-1.55,2,2,0,0,1,.8-1l.36.55a1.22,1.22,0,0,0-.42,1.69c.53.93,2.85.9,4.7.3.9-.3,1.68-.55,2-1.29a2.44,2.44,0,0,0-.29-2.07l.56-.34a3.1,3.1,0,0,1,.34,2.67,3.37,3.37,0,0,1-2.4,1.65A9.47,9.47,0,0,1,165.18,140.41Z"/><path class="cls-4" d="M166.89,123a.62.62,0,0,0-.49-.49,5.53,5.53,0,0,0-.55-.1c-4.15-.65-6,1.31-10.15,1-2.31-.15-3.18-.85-3.57-1.26a3.44,3.44,0,0,1-1-2.45,2.47,2.47,0,0,1,.73-1.82,2.36,2.36,0,0,1,2.52-.34,2.42,2.42,0,0,1,1.36,1.74.62.62,0,0,0,.48.49l.56.1c4.15.65,6-1.31,10.15-1,2.3.15,3.18.85,3.57,1.26a3.44,3.44,0,0,1,1,2.45,2.5,2.5,0,0,1-.73,1.82,2.36,2.36,0,0,1-2.52.34A2.39,2.39,0,0,1,166.89,123Z"/><path class="cls-2" d="M169.25,125.28a2.66,2.66,0,0,1-1.14-.25,2.73,2.73,0,0,1-1.55-2h0a.28.28,0,0,0-.22-.23l-.54-.1a11.89,11.89,0,0,0-5.22.45,14.62,14.62,0,0,1-4.9.59,5.59,5.59,0,0,1-3.78-1.36,3.78,3.78,0,0,1-1.11-2.69,2.81,2.81,0,0,1,.84-2,2.69,2.69,0,0,1,2.88-.4,2.76,2.76,0,0,1,1.55,2,.3.3,0,0,0,.22.23l.54.1a11.9,11.9,0,0,0,5.22-.45,14.34,14.34,0,0,1,4.9-.59,5.59,5.59,0,0,1,3.78,1.36,3.78,3.78,0,0,1,1.11,2.69,2.81,2.81,0,0,1-.84,2A2.62,2.62,0,0,1,169.25,125.28Zm-2-2.35a2.11,2.11,0,0,0,1.17,1.5,2,2,0,0,0,2.17-.29,2.2,2.2,0,0,0,.62-1.59,3.15,3.15,0,0,0-.92-2.21c-.24-.24-1-1-3.36-1.16a14,14,0,0,0-4.69.58,12.61,12.61,0,0,1-5.49.46l-.56-.11a.93.93,0,0,1-.74-.75,2.09,2.09,0,0,0-1.17-1.5,2,2,0,0,0-2.17.29,2.15,2.15,0,0,0-.62,1.58,3.13,3.13,0,0,0,.92,2.21c.24.25,1,1,3.36,1.17a14.33,14.33,0,0,0,4.69-.58,12.58,12.58,0,0,1,5.48-.46l.57.11a1,1,0,0,1,.74.75Z"/><polygon points="22.01 13.97 24.17 13.97 24.17 11.23 15.87 11.23 15.87 13.97 18.65 13.97 10.42 25.61 10.42 13.97 13.21 13.97 13.21 11.23 4.9 11.23 4.9 13.97 7.68 13.97 7.68 38.48 4.9 38.48 4.9 41.23 13.21 41.23 13.21 38.48 10.42 38.48 10.42 30.35 13.52 25.98 18.87 38.48 15.87 38.48 15.87 41.23 24.17 41.23 24.17 38.48 21.86 38.48 15.37 23.36 22.01 13.97"/><polygon points="180.78 269.29 178.62 269.29 178.62 272.04 186.93 272.04 186.93 269.29 184.14 269.29 192.37 257.66 192.37 269.29 189.59 269.29 189.59 272.04 197.9 272.04 197.9 269.29 195.11 269.29 195.11 244.78 197.9 244.78 197.9 242.04 189.59 242.04 189.59 244.78 192.37 244.78 192.37 252.92 189.28 257.29 183.92 244.78 186.93 244.78 186.93 242.04 178.62 242.04 178.62 244.78 180.94 244.78 187.42 259.91 180.78 269.29"/><path d="M75.11,57.26a8.61,8.61,0,0,1-16.63,3.13l-.07-.17-.84-2a.61.61,0,0,0-1.18.23,26.66,26.66,0,0,0,1.3,8,26.16,26.16,0,0,0,2.7,5.76h-10a25.71,25.71,0,0,0,2.7-5.76,26.34,26.34,0,0,0,1.3-8,.61.61,0,0,0-1.18-.23l-.84,2-.07.17a8.61,8.61,0,1,1-8-11.74,8.4,8.4,0,0,1,3.22.63l1.44.74.75.39a.39.39,0,0,0,.48-.61l-1.39-1.54-.41-.45a1,1,0,0,0-.1-.11,2.83,2.83,0,0,1-.2-.28,2.27,2.27,0,0,1-.18-.25,3,3,0,0,1-.2-.29,1.76,1.76,0,0,1-.14-.23,3.49,3.49,0,0,1-.18-.31,8.94,8.94,0,0,1-.59-1.3c-.09-.25-.17-.51-.24-.77a.61.61,0,0,0,0-.13c0-.11-.05-.21-.07-.32s-.05-.23-.07-.35l0-.21,0-.27c0-.19,0-.38,0-.57s0-.31,0-.47a9.15,9.15,0,1,1,18.3,0c0,.16,0,.31,0,.47a5.48,5.48,0,0,1,0,.57l0,.27,0,.21c0,.12,0,.23-.07.35s0,.21-.07.32l0,.13c-.07.26-.15.52-.24.77a8.94,8.94,0,0,1-.59,1.3l-.17.31-.15.23a3,3,0,0,1-.2.29,1.44,1.44,0,0,1-.18.25,2.83,2.83,0,0,1-.2.28,1,1,0,0,0-.1.11l-.41.45L60.61,49.8a.39.39,0,0,0,.48.61l.75-.39,1.44-.74a8.4,8.4,0,0,1,3.22-.63A8.61,8.61,0,0,1,75.11,57.26Z"/><path d="M24.17,59.58a4.21,4.21,0,0,1-8.12,1.54L16,61l-.41-1a.3.3,0,0,0-.58.11,13,13,0,0,0,.63,3.92A13.1,13.1,0,0,0,17,66.9H12.09a13.1,13.1,0,0,0,1.32-2.82A13,13,0,0,0,14,60.16a.29.29,0,0,0-.57-.11l-.42,1,0,.09A4.21,4.21,0,1,1,9.1,55.38a4.35,4.35,0,0,1,1.58.3l.7.37.37.19a.19.19,0,0,0,.23-.3l-.68-.75L11.1,55l0-.06-.1-.13-.09-.12-.09-.15-.07-.11-.09-.15a3.65,3.65,0,0,1-.28-.64,2.29,2.29,0,0,1-.12-.37.64.64,0,0,1,0-.07l0-.15a1.22,1.22,0,0,1,0-.17.44.44,0,0,1,0-.1s0-.09,0-.14a2.46,2.46,0,0,1,0-.28c0-.07,0-.15,0-.23a4.48,4.48,0,0,1,9,0,1.69,1.69,0,0,1,0,.23,2.46,2.46,0,0,1,0,.28s0,.09,0,.14,0,.06,0,.1a1,1,0,0,1,0,.17l0,.15a.64.64,0,0,1,0,.07c0,.13-.07.25-.11.37a4.63,4.63,0,0,1-.29.64l-.09.15a.41.41,0,0,1-.07.11l-.09.15-.09.12-.1.13L18,55l-.2.22-.68.75a.19.19,0,0,0,.23.3l.37-.19.7-.37a4.35,4.35,0,0,1,1.58-.3A4.2,4.2,0,0,1,24.17,59.58Z"/><path d="M127.69,226a8.61,8.61,0,0,1,16.62-3.14l.07.18.84,2a.62.62,0,0,0,1.19-.23,26.13,26.13,0,0,0-4-13.79h10a26.13,26.13,0,0,0-4,13.79.61.61,0,0,0,1.18.23l.85-2,.07-.18a8.61,8.61,0,1,1,8,11.75,8.44,8.44,0,0,1-3.22-.63l-1.44-.74-.75-.4a.4.4,0,0,0-.47.62L154,235l.4.44.1.12.21.27.18.25c.07.1.13.2.19.3l.15.23.18.31a9.51,9.51,0,0,1,.58,1.3c.09.25.17.51.24.76l0,.14a3,3,0,0,1,.07.32c0,.11,0,.23.07.34l0,.21a2.36,2.36,0,0,1,0,.28c0,.19,0,.38,0,.57s0,.31,0,.47a9.16,9.16,0,0,1-18.31,0c0-.16,0-.31,0-.47a5.27,5.27,0,0,1,0-.57,2.36,2.36,0,0,1,0-.28.76.76,0,0,1,0-.21l.06-.34c0-.11.05-.22.07-.32a.74.74,0,0,0,0-.14c.07-.25.15-.51.24-.76a8.43,8.43,0,0,1,.58-1.3l.18-.31c.05-.08.09-.16.14-.23l.2-.3.18-.25.21-.27.1-.12.4-.44,1.39-1.54a.4.4,0,0,0-.47-.62l-.76.4-1.43.74a8.48,8.48,0,0,1-3.22.63A8.61,8.61,0,0,1,127.69,226Z"/><path d="M178.62,223.68a4.21,4.21,0,0,1,8.12-1.53l0,.09.41,1a.3.3,0,0,0,.58-.11,12.88,12.88,0,0,0-2-6.74h4.9a12.43,12.43,0,0,0-1.32,2.82,13,13,0,0,0-.64,3.92.3.3,0,0,0,.58.11l.41-1,0-.09a4.21,4.21,0,1,1,3.92,5.74,4.11,4.11,0,0,1-1.57-.31l-.71-.36-.36-.19a.19.19,0,0,0-.23.3l.68.75.19.22.05.06a.64.64,0,0,1,.1.13l.09.12.1.14a.75.75,0,0,0,.07.12,1.09,1.09,0,0,1,.08.15,4.51,4.51,0,0,1,.29.63l.12.38s0,0,0,.06,0,.11,0,.16l0,.17a.34.34,0,0,1,0,.1.68.68,0,0,1,0,.14,2.46,2.46,0,0,1,0,.28,1.69,1.69,0,0,1,0,.23,4.47,4.47,0,0,1-8.94,0v-.23a2.4,2.4,0,0,1,0-.28s0-.09,0-.14,0-.07,0-.1l0-.17,0-.16a.14.14,0,0,0,0-.06c0-.13.07-.25.12-.38a4.46,4.46,0,0,1,.28-.63l.09-.15.07-.12.1-.14a.94.94,0,0,1,.09-.12.64.64,0,0,1,.1-.13l0-.06.2-.22.68-.75a.19.19,0,0,0-.23-.3l-.37.19-.7.36a4.15,4.15,0,0,1-1.57.31A4.2,4.2,0,0,1,178.62,223.68Z"/></g></g></svg>