<svg xmlns="http://www.w3.org/2000/svg" viewBox="0 0 202.79 283.27"><defs><style>.cls-1{fill:#fff;}.cls-2{fill:#e0010a;}</style></defs><g id="Réteg_2" data-name="Réteg 2"><g id="_ŽÓť_1" data-name="—ŽÓť_1"><rect class="cls-1" width="202.79" height="283.27" rx="15.31"/><path class="cls-2" d="M14.54,67.14A36.1,36.1,0,0,1,17.81,62,36.66,36.66,0,0,1,22,57.51a35.87,35.87,0,0,1-7.42-9.64A37.17,37.17,0,0,1,11.26,53a36.1,36.1,0,0,1-4.15,4.54A36.66,36.66,0,0,1,11.26,62,37.17,37.17,0,0,1,14.54,67.14Z"/><path class="cls-2" d="M188.26,216.13a36.59,36.59,0,0,1-7.42,9.63,36.59,36.59,0,0,1,7.42,9.63,35.49,35.49,0,0,1,3.27-5.09,36.1,36.1,0,0,1,4.15-4.54,36.1,36.1,0,0,1-4.15-4.54A35.49,35.49,0,0,1,188.26,216.13Z"/><path class="cls-2" d="M14.14,41.23a8,8,0,0,1-5.33-2.12,13.23,13.23,0,0,1-3.25-4.78l2.82-1.25a9.62,9.62,0,0,0,2.1,3.22A5.11,5.11,0,0,0,14.16,38a5.53,5.53,0,0,0,4.69-2.76,9.46,9.46,0,0,0,1.66-5.41,9.19,9.19,0,0,0-1.66-5.38,5.55,5.55,0,0,0-4.69-2.61c-1.57,0-3.13.85-4.65,2.52l-2.27-1.4V11.73h13V15h-10v4.56l.41-.2a7.91,7.91,0,0,1,3.46-.82,8.34,8.34,0,0,1,6.82,3.52,12.26,12.26,0,0,1,2.58,7.74A12.69,12.69,0,0,1,21,37.6,8.33,8.33,0,0,1,14.14,41.23Z"/><path class="cls-2" d="M188.65,242a7.94,7.94,0,0,1,5.33,2.12,13.11,13.11,0,0,1,3.25,4.78l-2.81,1.25a9.77,9.77,0,0,0-2.1-3.22,5.13,5.13,0,0,0-3.69-1.66,5.55,5.55,0,0,0-4.69,2.76,9.42,9.42,0,0,0-1.66,5.41,9.08,9.08,0,0,0,1.67,5.37,5.53,5.53,0,0,0,4.69,2.62c1.56,0,3.12-.85,4.64-2.53l2.27,1.41v11.19h-13v-3.26h10v-4.56l-.41.2a7.91,7.91,0,0,1-3.46.82,8.35,8.35,0,0,1-6.81-3.52,12.23,12.23,0,0,1-2.59-7.74,12.68,12.68,0,0,1,2.55-7.82A8.33,8.33,0,0,1,188.65,242Z"/><path class="cls-2" d="M60.56,74.16A74.36,74.36,0,0,1,75.75,54.44a73.29,73.29,0,0,1-8.48-9.28,73.67,73.67,0,0,1-6.71-10.43,74.42,74.42,0,0,1-6.7,10.43,73.3,73.3,0,0,1-8.49,9.28,74.15,74.15,0,0,1,8.49,9.29A74.42,74.42,0,0,1,60.56,74.16Z"/><path class="cls-2" d="M60.56,209.11a74.42,74.42,0,0,1-6.7,10.43,73.3,73.3,0,0,1-8.49,9.28,74.15,74.15,0,0,1,8.49,9.29,74.42,74.42,0,0,1,6.7,10.43,74.36,74.36,0,0,1,15.19-19.72,74.1,74.1,0,0,1-15.19-19.71Z"/><path class="cls-2" d="M101.4,161.35a74,74,0,0,1,15.18-19.72,73.79,73.79,0,0,1-15.18-19.71,74.1,74.1,0,0,1-15.19,19.71,74.15,74.15,0,0,1,8.48,9.29A73.67,73.67,0,0,1,101.4,161.35Z"/><path class="cls-2" d="M142.23,74.16a74.36,74.36,0,0,1,15.19-19.72,73.29,73.29,0,0,1-8.48-9.28,73.67,73.67,0,0,1-6.71-10.43,74.42,74.42,0,0,1-6.7,10.43,74,74,0,0,1-8.48,9.28,74,74,0,0,1,15.18,19.72Z"/><path class="cls-2" d="M142.23,209.11a74.42,74.42,0,0,1-6.7,10.43,73.3,73.3,0,0,1-8.49,9.28,73.81,73.81,0,0,1,15.19,19.72,74.36,74.36,0,0,1,15.19-19.72,74.1,74.1,0,0,1-15.19-19.71Z"/></g></g></svg>