<svg xmlns="http://www.w3.org/2000/svg" viewBox="0 0 202.79 283.27"><defs><style>.cls-1{fill:#fff;}</style></defs><g id="Réteg_2" data-name="Réteg 2"><g id="_ŽÓť_1" data-name="—ŽÓť_1"><rect class="cls-1" width="202.79" height="283.27" rx="15.31" transform="translate(202.79 283.27) rotate(180)"/><path d="M14.54,67.08h2.22a11.65,11.65,0,0,1-1-2.23,11.94,11.94,0,0,1-.55-3.95.15.15,0,0,1,.3,0c.33,1.92,1.44,3.28,2.69,3.55A3.41,3.41,0,0,0,21,63.58a4.09,4.09,0,0,0,1.24-3A8,8,0,0,0,21,56.22a86.61,86.61,0,0,0-6.43-8.41A86.37,86.37,0,0,0,8.1,56.22a8,8,0,0,0-1.28,4.36,4.09,4.09,0,0,0,1.24,3,3.41,3.41,0,0,0,2.78.85c1.25-.27,2.36-1.63,2.7-3.55a.15.15,0,0,1,.29,0,11.85,11.85,0,0,1-1.52,6.18Z"/><path d="M188.26,216.19H186a11.69,11.69,0,0,1,1.53,6.18.15.15,0,0,1-.3,0c-.34-1.92-1.45-3.28-2.7-3.55a3.41,3.41,0,0,0-2.78.85,4.06,4.06,0,0,0-1.23,3,8.06,8.06,0,0,0,1.27,4.36,86.37,86.37,0,0,0,6.44,8.41,88,88,0,0,0,6.44-8.41,8.15,8.15,0,0,0,1.27-4.36,4.08,4.08,0,0,0-1.24-3,3.4,3.4,0,0,0-2.77-.85c-1.26.27-2.37,1.63-2.7,3.55a.15.15,0,0,1-.3,0,11.69,11.69,0,0,1,1.53-6.18Z"/><path d="M14.59,41.23V38h2.27V34.24H5.77V31.57L17.23,12.4h2.63V31H23.3v3.26H19.86V38h1.71v3.27ZM9.74,31h7.12V19.07Z"/><path d="M188.2,242v3.27h-2.27V249H197v2.68l-11.47,19.17h-2.63V252.29h-3.44V249h3.44v-3.71h-1.7V242Zm4.85,10.25h-7.12V264.2Z"/><path d="M60.56,74.16h4.56A23.93,23.93,0,0,1,62,61.51a.31.31,0,0,1,.61,0c.68,3.92,3,6.71,5.52,7.26A7,7,0,0,0,73.82,67a8.36,8.36,0,0,0,2.52-6.14,16.54,16.54,0,0,0-2.6-8.92c-4.92-7.71-10.38-13.67-13.18-17.2-2.8,3.53-8.26,9.49-13.17,17.2a16.54,16.54,0,0,0-2.61,8.92A8.34,8.34,0,0,0,47.31,67,6.93,6.93,0,0,0,53,68.74c2.57-.55,4.84-3.34,5.52-7.26a.31.31,0,0,1,.62,0A24,24,0,0,1,56,74.16Z"/><path d="M60.56,209.11H56a24,24,0,0,1,3.13,12.64.31.31,0,0,1-.62,0c-.68-3.92-2.95-6.71-5.52-7.26a7,7,0,0,0-5.68,1.74,8.36,8.36,0,0,0-2.53,6.15,16.57,16.57,0,0,0,2.61,8.92c4.91,7.71,10.37,13.67,13.17,17.2,2.8-3.53,8.26-9.49,13.18-17.2a16.57,16.57,0,0,0,2.6-8.92,8.38,8.38,0,0,0-2.52-6.15,7,7,0,0,0-5.69-1.74c-2.57.55-4.84,3.34-5.52,7.26a.31.31,0,0,1-.61,0,23.92,23.92,0,0,1,3.12-12.64Z"/><path d="M142.23,74.16h4.57a23.76,23.76,0,0,1-2-4.56,24.28,24.28,0,0,1-1.12-8.09.31.31,0,0,1,.61,0c.68,3.92,2.95,6.71,5.52,7.26A7,7,0,0,0,155.49,67,8.32,8.32,0,0,0,158,60.85a16.46,16.46,0,0,0-2.6-8.92c-4.92-7.71-10.37-13.67-13.18-17.2-2.8,3.53-8.26,9.49-13.17,17.2a16.54,16.54,0,0,0-2.61,8.92A8.34,8.34,0,0,0,129,67a6.93,6.93,0,0,0,5.68,1.75c2.57-.55,4.84-3.34,5.53-7.26a.31.31,0,0,1,.61,0,24.57,24.57,0,0,1-1.13,8.09,23.77,23.77,0,0,1-2,4.56Z"/><path d="M142.23,209.11h-4.56a23.77,23.77,0,0,1,2,4.56,24.52,24.52,0,0,1,1.13,8.08.31.31,0,0,1-.61,0c-.69-3.92-3-6.71-5.53-7.26a7,7,0,0,0-5.68,1.74,8.36,8.36,0,0,0-2.53,6.15,16.57,16.57,0,0,0,2.61,8.92c4.91,7.71,10.37,13.67,13.17,17.2,2.81-3.53,8.26-9.49,13.18-17.2a16.49,16.49,0,0,0,2.6-8.92,8.34,8.34,0,0,0-2.52-6.15,7,7,0,0,0-5.69-1.74c-2.57.55-4.84,3.34-5.52,7.26a.31.31,0,0,1-.61,0,24.22,24.22,0,0,1,1.12-8.08,23.76,23.76,0,0,1,2-4.56Z"/></g></g></svg>